<?xml version="1.0" encoding="UTF-8" standalone="no"?>
<!-- Generator: Adobe Illustrator 16.0.0, SVG Export Plug-In . SVG Version: 6.00 Build 0)  -->
<svg xmlns:dc="http://purl.org/dc/elements/1.1/" xmlns:cc="http://creativecommons.org/ns#" xmlns:rdf="http://www.w3.org/1999/02/22-rdf-syntax-ns#" xmlns:svg="http://www.w3.org/2000/svg" xmlns="http://www.w3.org/2000/svg" xmlns:sodipodi="http://sodipodi.sourceforge.net/DTD/sodipodi-0.dtd" xmlns:inkscape="http://www.inkscape.org/namespaces/inkscape" version="1.1" id="Layer_1" x="0px" y="0px" width="1920px" height="1080px" viewBox="0 0 1920 1080" enable-background="new 0 0 1920 1080" xml:space="preserve" sodipodi:docname="send.svg" inkscape:version="0.92.4 (5da689c313, 2019-01-14)" inkscape:export-filename="E:\free\fiverr2\german\New folder\image.png" inkscape:export-xdpi="99.999908" inkscape:export-ydpi="99.999908"><metadata id="metadata2167"><rdf:RDF><cc:Work rdf:about=""><dc:format>image/svg+xml</dc:format><dc:type rdf:resource="http://purl.org/dc/dcmitype/StillImage"/><dc:title/></cc:Work></rdf:RDF></metadata><defs id="defs2165">
</defs><sodipodi:namedview pagecolor="#ffffff" bordercolor="#666666" borderopacity="1" objecttolerance="10" gridtolerance="10" guidetolerance="10" inkscape:pageopacity="0" inkscape:pageshadow="2" inkscape:window-width="1366" inkscape:window-height="706" id="namedview2163" showgrid="false" inkscape:zoom="0.18645833" inkscape:cx="135.52937" inkscape:cy="282.94472" inkscape:window-x="-8" inkscape:window-y="-8" inkscape:window-maximized="1" inkscape:current-layer="Layer_1" inkscape:snap-nodes="false"/>

<path inkscape:connector-curvature="0" id="polygon1500" d="m 127.05078,445.23047 -3.16016,3.12891 -0.0215,0.0117 L 9.3007812,561.58008 0,570.76953 V 820.22461 L 127.05078,819.7207 490.89844,818.26172 217.16992,537.63086 Z" style="fill:#88beca"/><path inkscape:connector-curvature="0" id="polygon1502" d="M 127.05078,456.20202 0.16258787,580.4621 V 819.70338 L 127.05078,819.20356 Z" style="fill:#6fa1ac;stroke-width:0.97370189"/><path inkscape:connector-curvature="0" id="polygon1504" d="m 106.58008,460.95117 -0.0195,0.01 L 0,566.25391 v 182.125 z" style="fill:#629799"/><path d="m 217.17,534.682 c -37.752,50.939 -46.981,9.001 -68.477,0 -21.497,-9.001 4.96,35.872 -24.659,77.448 C 94.415,653.717 59.484,585.59 29.348,598.767 10.497,607.014 5.64,588.236 2.343,559.434 l 118.404,-117 0.021,-0.01 3.265,-3.234 z" id="path1506" inkscape:connector-curvature="0" style="fill:#eafdff"/><g transform="translate(-134)" id="g1518">
		<path style="fill:#88beca" d="m 846.576,939.469 -363.849,-373.031 -3.162,3.13 -0.019,0.011 -342.106,332.877 -6.12164,43.38833 14.15864,-3.56633 196.179,-0.791 141.071,-0.558 z" id="polygon1510" inkscape:connector-curvature="0" sodipodi:nodetypes="cccccccccc"/>
		<path style="fill:#6fa1ac" d="M 482.728,940.926 V 566.441 l -336.8,354.835 z" id="polygon1512" inkscape:connector-curvature="0" sodipodi:nodetypes="cccc"/>
		<path style="fill:#629799" d="m 329.061,954.077 137.91,-371.92 -0.02,0.011 -335.63264,363.67633 1.56264,9.02267 z" id="polygon1514" inkscape:connector-curvature="0" sodipodi:nodetypes="cccccc"/>
		<path style="fill:#eafdff" inkscape:connector-curvature="0" id="path1516" d="m 463.299,699.619 c 22.37,15.619 35.215,-21.868 50.676,-10.935 10.194,7.208 53.072,-12.229 67.222,-25.731 l -97.211,-99.227 -77.312,70.461 c 8.628,1.992 -5.866,27.943 47.447,1.39 13.723,-6.834 -13.184,48.422 9.178,64.042 z"/>
	</g><rect style="fill:#a5a5b7" id="rect1520" height="310.47198" width="154.28999" y="618.84998" x="1765.71"/><polygon style="fill:#f1e4be" id="polygon1522" points="1582.72,920.551 1736.21,920.551 1736.21,623.681 1736.21,593.381 1736.21,591.341 1686.319,591.341 1595.24,591.341 1582.72,591.341 "/><g id="g1572">
		<g id="g1528">
			<rect style="fill:#52909e" id="rect1524" height="15.44" width="47" y="862.81097" x="1845.21"/>
			<polygon style="fill:#52909e" id="polygon1526" points="1892.21,878.251 1853.12,862.811 1845.21,862.811 1845.21,878.251 "/>
		</g>
		<g id="g1534">
			<rect style="fill:#52909e" id="rect1530" height="15.44" width="47" y="830.31097" x="1845.21"/>
			<polygon style="fill:#52909e" id="polygon1532" points="1892.21,845.751 1853.12,830.311 1845.21,830.311 1845.21,845.751 "/>
		</g>
		<g id="g1540">
			<rect style="fill:#52909e" id="rect1536" height="15.44" width="47" y="797.81097" x="1845.21"/>
			<polygon style="fill:#52909e" id="polygon1538" points="1892.21,813.251 1853.12,797.811 1845.21,797.811 1845.21,813.251 "/>
		</g>
		<g id="g1546">
			<rect style="fill:#52909e" id="rect1542" height="15.44" width="47" y="765.31097" x="1845.21"/>
			<polygon style="fill:#52909e" id="polygon1544" points="1892.21,780.751 1853.12,765.311 1845.21,765.311 1845.21,780.751 "/>
		</g>
		<g id="g1552">
			<rect style="fill:#52909e" id="rect1548" height="15.44" width="47" y="732.81097" x="1845.21"/>
			<polygon style="fill:#52909e" id="polygon1550" points="1892.21,748.251 1853.12,732.811 1845.21,732.811 1845.21,748.251 "/>
		</g>
		<g id="g1558">
			<rect style="fill:#52909e" id="rect1554" height="15.44" width="47" y="700.31097" x="1845.21"/>
			<polygon style="fill:#52909e" id="polygon1556" points="1892.21,715.751 1853.12,700.311 1845.21,700.311 1845.21,715.751 "/>
		</g>
		<g id="g1564">
			<rect style="fill:#52909e" id="rect1560" height="15.44" width="47" y="667.81097" x="1845.21"/>
			<polygon style="fill:#52909e" id="polygon1562" points="1892.21,683.251 1853.12,667.811 1845.21,667.811 1845.21,683.251 "/>
		</g>
		<g id="g1570">
			<rect style="fill:#52909e" id="rect1566" height="15.44" width="47" y="635.31097" x="1845.21"/>
			<polygon style="fill:#52909e" id="polygon1568" points="1892.21,650.751 1853.12,635.311 1845.21,635.311 1845.21,650.751 "/>
		</g>
	</g><g id="g1578">
		<rect style="fill:#51b7b7" id="rect1574" height="15.44" width="47" y="866.40002" x="1603.21"/>
		<polygon style="fill:#34bfce" id="polygon1576" points="1650.21,881.841 1611.12,866.4 1603.21,866.4 1603.21,881.841 "/>
	</g><g id="g1584">
		<rect style="fill:#51b7b7" id="rect1580" height="15.439" width="47" y="838.03101" x="1603.21"/>
		<polygon style="fill:#34bfce" id="polygon1582" points="1650.21,853.472 1611.12,838.031 1603.21,838.031 1603.21,853.472 "/>
	</g><g id="g1590">
		<rect style="fill:#51b7b7" id="rect1586" height="15.439" width="47" y="809.66199" x="1603.21"/>
		<polygon style="fill:#34bfce" id="polygon1588" points="1650.21,825.103 1611.12,809.662 1603.21,809.662 1603.21,825.103 "/>
	</g><g id="g1596">
		<rect style="fill:#51b7b7" id="rect1592" height="15.439" width="47" y="781.29303" x="1603.21"/>
		<polygon style="fill:#34bfce" id="polygon1594" points="1650.21,796.733 1611.12,781.293 1603.21,781.293 1603.21,796.733 "/>
	</g><g id="g1602">
		<rect style="fill:#51b7b7" id="rect1598" height="15.44" width="47" y="752.92401" x="1603.21"/>
		<polygon style="fill:#34bfce" id="polygon1600" points="1650.21,768.364 1611.12,752.924 1603.21,752.924 1603.21,768.364 "/>
	</g><g id="g1608">
		<rect style="fill:#51b7b7" id="rect1604" height="15.44" width="47" y="724.55499" x="1603.21"/>
		<polygon style="fill:#34bfce" id="polygon1606" points="1650.21,739.995 1611.12,724.555 1603.21,724.555 1603.21,739.995 "/>
	</g><g id="g1614">
		<rect style="fill:#51b7b7" id="rect1610" height="15.44" width="47" y="696.18597" x="1603.21"/>
		<polygon style="fill:#34bfce" id="polygon1612" points="1650.21,711.626 1611.12,696.186 1603.21,696.186 1603.21,711.626 "/>
	</g><g id="g1620">
		<rect style="fill:#51b7b7" id="rect1616" height="15.44" width="47" y="667.81598" x="1603.21"/>
		<polygon style="fill:#34bfce" id="polygon1618" points="1650.21,683.257 1611.12,667.816 1603.21,667.816 1603.21,683.257 "/>
	</g><g id="g1626">
		<rect style="fill:#51b7b7" id="rect1622" height="15.439" width="47" y="639.44702" x="1603.21"/>
		<polygon style="fill:#34bfce" id="polygon1624" points="1650.21,654.888 1611.12,639.447 1603.21,639.447 1603.21,654.888 "/>
	</g><g id="g1632">
		<rect style="fill:#51b7b7" id="rect1628" height="15.439" width="47" y="611.078" x="1603.21"/>
		<polygon style="fill:#34bfce" id="polygon1630" points="1650.21,626.519 1611.12,611.078 1603.21,611.078 1603.21,626.519 "/>
	</g><g id="g1638">
		<rect style="fill:#51b7b7" id="rect1634" height="15.44" width="47" y="866.40002" x="1670.546"/>
		<polygon style="fill:#34bfce" id="polygon1636" points="1717.546,881.841 1678.456,866.4 1670.546,866.4 1670.546,881.841 "/>
	</g><g id="g1644">
		<rect style="fill:#51b7b7" id="rect1640" height="15.439" width="47" y="838.03101" x="1670.546"/>
		<polygon style="fill:#34bfce" id="polygon1642" points="1717.546,853.472 1678.456,838.031 1670.546,838.031 1670.546,853.472 "/>
	</g><g id="g1650">
		<rect style="fill:#51b7b7" id="rect1646" height="15.439" width="47" y="809.66199" x="1670.546"/>
		<polygon style="fill:#34bfce" id="polygon1648" points="1717.546,825.103 1678.456,809.662 1670.546,809.662 1670.546,825.103 "/>
	</g><g id="g1656">
		<rect style="fill:#51b7b7" id="rect1652" height="15.439" width="47" y="781.29303" x="1670.546"/>
		<polygon style="fill:#34bfce" id="polygon1654" points="1717.546,796.733 1678.456,781.293 1670.546,781.293 1670.546,796.733 "/>
	</g><g id="g1662">
		<rect style="fill:#51b7b7" id="rect1658" height="15.44" width="47" y="752.92401" x="1670.546"/>
		<polygon style="fill:#34bfce" id="polygon1660" points="1717.546,768.364 1678.456,752.924 1670.546,752.924 1670.546,768.364 "/>
	</g><g id="g1668">
		<rect style="fill:#51b7b7" id="rect1664" height="15.44" width="47" y="724.55499" x="1670.546"/>
		<polygon style="fill:#34bfce" id="polygon1666" points="1717.546,739.995 1678.456,724.555 1670.546,724.555 1670.546,739.995 "/>
	</g><g id="g1674">
		<rect style="fill:#51b7b7" id="rect1670" height="15.44" width="47" y="696.18597" x="1670.546"/>
		<polygon style="fill:#34bfce" id="polygon1672" points="1717.546,711.626 1678.456,696.186 1670.546,696.186 1670.546,711.626 "/>
	</g><g id="g1680">
		<rect style="fill:#51b7b7" id="rect1676" height="15.44" width="47" y="667.81598" x="1670.546"/>
		<polygon style="fill:#34bfce" id="polygon1678" points="1717.546,683.257 1678.456,667.816 1670.546,667.816 1670.546,683.257 "/>
	</g><g id="g1686">
		<rect style="fill:#51b7b7" id="rect1682" height="15.439" width="47" y="639.44702" x="1670.546"/>
		<polygon style="fill:#34bfce" id="polygon1684" points="1717.546,654.888 1678.456,639.447 1670.546,639.447 1670.546,654.888 "/>
	</g><g id="g1736">
		<g id="g1692">
			<rect style="fill:#017396" id="rect1688" height="15.44" width="47" y="862.81097" x="1778.71"/>
			<polygon style="fill:#52909e" id="polygon1690" points="1825.71,878.251 1786.62,862.811 1778.71,862.811 1778.71,878.251 "/>
		</g>
		<g id="g1698">
			<rect style="fill:#017396" id="rect1694" height="15.44" width="47" y="830.31097" x="1778.71"/>
			<polygon style="fill:#52909e" id="polygon1696" points="1825.71,845.751 1786.62,830.311 1778.71,830.311 1778.71,845.751 "/>
		</g>
		<g id="g1704">
			<rect style="fill:#017396" id="rect1700" height="15.44" width="47" y="797.81097" x="1778.71"/>
			<polygon style="fill:#52909e" id="polygon1702" points="1825.71,813.251 1786.62,797.811 1778.71,797.811 1778.71,813.251 "/>
		</g>
		<g id="g1710">
			<rect style="fill:#017396" id="rect1706" height="15.44" width="47" y="765.31097" x="1778.71"/>
			<polygon style="fill:#52909e" id="polygon1708" points="1825.71,780.751 1786.62,765.311 1778.71,765.311 1778.71,780.751 "/>
		</g>
		<g id="g1716">
			<rect style="fill:#017396" id="rect1712" height="15.44" width="47" y="732.81097" x="1778.71"/>
			<polygon style="fill:#52909e" id="polygon1714" points="1825.71,748.251 1786.62,732.811 1778.71,732.811 1778.71,748.251 "/>
		</g>
		<g id="g1722">
			<rect style="fill:#017396" id="rect1718" height="15.44" width="47" y="700.31097" x="1778.71"/>
			<polygon style="fill:#52909e" id="polygon1720" points="1825.71,715.751 1786.62,700.311 1778.71,700.311 1778.71,715.751 "/>
		</g>
		<g id="g1728">
			<rect style="fill:#017396" id="rect1724" height="15.44" width="47" y="667.81097" x="1778.71"/>
			<polygon style="fill:#52909e" id="polygon1726" points="1825.71,683.251 1786.62,667.811 1778.71,667.811 1778.71,683.251 "/>
		</g>
		<g id="g1734">
			<rect style="fill:#017396" id="rect1730" height="15.44" width="47" y="635.31097" x="1778.71"/>
			<polygon style="fill:#52909e" id="polygon1732" points="1825.71,650.751 1786.62,635.311 1778.71,635.311 1778.71,650.751 "/>
		</g>
	</g><polygon style="fill:#52909e" id="polygon1738" points="1756.21,579.341 1895.21,579.341 1904.71,618.85 1765.71,618.85 "/><path style="fill:#f6921a" inkscape:connector-curvature="0" id="path1740" d="m 1739.212,592.894 c -7.459,-39.041 -41.763,-68.553 -82.977,-68.553 -41.215,0 -75.519,29.513 -82.978,68.553 z"/><rect style="fill:#aa4f27" id="rect1742" height="12.911" width="180.563" y="578.42999" x="1568.024"/><polygon style="fill:#ead39b" id="polygon1744" points="1736.21,625.681 1595.24,593.341 1686.319,593.341 1736.21,595.381 "/><rect style="fill:#52909e" id="rect1746" height="86.042" width="5.54" y="438.29901" x="1653.465"/><g id="g1752">
		<rect style="fill:#51b7b7" id="rect1748" height="15.439" width="47" y="611.078" x="1670.546"/>
		<polygon style="fill:#34bfce" id="polygon1750" points="1717.546,626.519 1678.456,611.078 1670.546,611.078 1670.546,626.519 "/>
	</g>
<path style="fill:#239774" inkscape:connector-curvature="0" id="path1755" d="M 360.253,937.293 C 465.272,880.087 511.947,792.6 563.29,792.6 c 68.319,0 159.862,146.403 228.708,144.672 z" inkscape:export-xdpi="99.999908" inkscape:export-ydpi="99.999908"/><path style="fill:#239774" inkscape:connector-curvature="0" id="path1757" d="m 186.73,856.778 c 93.163,-50.747 134.569,-128.357 180.114,-128.357 60.606,0 141.813,129.874 202.888,128.338 z" inkscape:export-xdpi="99.999908" inkscape:export-ydpi="99.999908"/><path style="fill:#239774;stroke-width:0.99720138" inkscape:connector-curvature="0" id="path1759" d="m 336.55836,941.79633 -337.34384771,4.048 v -125.608 c 41.98401471,-59.6 73.74548871,-108.449 105.27824771,-108.449 69.25075,-10e-4 161.78066,227.659 232.0656,230.009 z" inkscape:export-xdpi="99.999908" inkscape:export-ydpi="99.999908"/><path style="fill:#92f811;stroke-width:0.99676681" inkscape:connector-curvature="0" id="path1761" d="M -0.79461358,945.84433 C -1.8766521,923.66185 -3.7609208,918.14634 0.22244041,902.97917 9.2546591,868.58782 52.201148,810.128 88.033828,810.128 c 60.214732,0 140.897462,129.874 201.577172,128.337 z" inkscape:export-xdpi="99.999908" inkscape:export-ydpi="99.999908" sodipodi:nodetypes="csscc"/><path style="fill:#9ae020" inkscape:connector-curvature="0" id="path1763" d="M -2.6816406,945.84433 C 84.988359,898.09433 34.46,819.41 77.05,811.149 V 938.7 Z" inkscape:export-xdpi="99.999908" inkscape:export-ydpi="99.999908" sodipodi:nodetypes="cccc"/><path style="fill:#92f811;stroke-width:0.9311409" inkscape:connector-curvature="0" id="path1765" d="m 22.011,965.925 h 762.40225 c 15.69138,0 28.40975,-6.415 28.40975,-14.329 0,-7.915 -12.71837,-14.33 -28.40975,-14.33 H 22.011 c -15.6896549,0 -25.1549488,7.415 -25.1549488,15.33 0,7.914 9.4652939,13.329 25.1549488,13.329 z" inkscape:export-xdpi="99.999908" inkscape:export-ydpi="99.999908"/><path style="fill:#9ae020;stroke-width:0.93159431" inkscape:connector-curvature="0" id="path1767" d="M 22.903881,971.824 H 782.06272 c 15.62162,0 28.28728,-7.998 28.28728,-17.865 0,-9.867 -12.66568,-17.89216 -28.28728,-17.865 l -771.239969,1.34078 c -15.6216002,0.0272 -14.4538058,8.40955 -11.50794112,17.19461 C 2.4521768,963.98554 7.2822577,971.824 22.903881,971.824 Z" inkscape:export-xdpi="99.999908" inkscape:export-ydpi="99.999908" sodipodi:nodetypes="sssssss"/><path style="fill:#f6f8a4;stroke-width:0.9313426" inkscape:connector-curvature="0" id="path1769" d="M 10.922643,948.501 H 425.25575 c 2.10778,0 4.11581,0.355 5.94515,0.997 1.83021,-0.642 3.83825,-0.997 5.94516,-0.997 h 414.33398 c 8.52653,0 15.43796,5.793 15.43796,12.938 0,7.146 -6.91143,12.937 -15.43796,12.937 H 437.14779 c -2.10864,0 -4.11493,-0.356 -5.94515,-0.997 -1.82935,0.641 -3.83824,0.997 -5.94516,0.997 H 6.0955675 c -8.5256653,-10e-4 -7.372892,-8.342 -7.372892,-15.486 0,-7.147 3.6743024,-10.389 12.1999675,-10.389 z" inkscape:export-xdpi="99.999908" inkscape:export-ydpi="99.999908"/><path style="fill:#f6f8a4" inkscape:connector-curvature="0" id="path1771" d="m 1920,951.501 v 25.88 h -237.683 c -2.396,0 -4.686,-0.36 -6.768,-1 -2.082,0.64 -4.36,1 -6.758,1 H 1197.53 c -9.688,0 -17.552,-5.8 -17.552,-12.94 0,-7.14 7.864,-12.938 17.552,-12.938 h 471.262 c 2.397,0 4.676,0.358 6.758,1 2.082,-0.642 4.369,-1 6.768,-1 z" inkscape:export-xdpi="99.999908" inkscape:export-ydpi="99.999908"/><path style="fill:#5ee50d" inkscape:connector-curvature="0" id="path1773" d="m 266.903,940.718 h 354.914 c 0,0 -97.063,-120.306 -177.457,-118.148 -0.581,0.01 -1.152,0.027 -1.724,0.058 -80.728,3.936 -175.733,118.09 -175.733,118.09 z" inkscape:export-xdpi="99.999908" inkscape:export-ydpi="99.999908"/><path style="fill:#92f811" inkscape:connector-curvature="0" id="path1775" d="m 92.6,940.735 h 419.639 c 0,0 -114.764,-142.246 -209.819,-139.696 -0.687,0.011 -1.362,0.034 -2.037,0.068 C 204.931,805.764 92.6,940.735 92.6,940.735 Z" inkscape:export-xdpi="99.999908" inkscape:export-ydpi="99.999908"/><path style="fill:#9ae020" inkscape:connector-curvature="0" id="path1777" d="M 92.6,940.735 H 302.419 V 801.038 c -0.688,0.011 -1.362,0.034 -2.037,0.068 C 204.931,805.764 92.6,940.735 92.6,940.735 Z" inkscape:export-xdpi="99.999908" inkscape:export-ydpi="99.999908"/><g id="g1783" inkscape:export-xdpi="99.999908" inkscape:export-ydpi="99.999908" transform="translate(-134)">
		<path style="fill:#92f811" inkscape:connector-curvature="0" id="path1779" d="m 646.239,940.765 h 210.33 c 0,0 -57.521,-71.297 -105.165,-70.019 -0.345,0.006 -0.684,0.017 -1.021,0.035 -47.842,2.333 -104.144,69.984 -104.144,69.984 z"/>
		<path style="fill:#9ae020" inkscape:connector-curvature="0" id="path1781" d="m 646.239,940.765 h 105.165 v -70.019 c -0.345,0.006 -0.684,0.017 -1.021,0.035 -47.842,2.333 -104.144,69.984 -104.144,69.984 z"/>
	</g><g id="g1793" inkscape:export-xdpi="99.999908" inkscape:export-ydpi="99.999908" transform="translate(-134)">
		<rect style="fill:#6e7e51" id="rect1785" height="25.576" width="7.934" y="918.57202" x="542.83899"/>
		<polygon style="fill:#5a6956" id="polygon1787" points="542.839,944.149 550.772,925.549 542.839,922.273 "/>
		<path style="fill:#4dba4d" inkscape:connector-curvature="0" id="path1789" d="m 510.037,925.549 37.123,-0.266 33.386,-0.233 c -13.953,-5.979 -22.424,-23.421 -22.424,-23.421 l 17.439,-0.498 c 0,0 -19.932,-11.958 -19.932,-19.711 h 13.266 c -0.604,0 -6.683,-4.275 -7.121,-4.704 -6.443,-6.344 -12.334,-19.47 -14.615,-24.936 -0.644,-1.54 -0.997,-2.473 -0.997,-2.473 -6.354,24.083 -22.174,32.391 -22.174,32.391 l 13.205,-0.278 c 2.491,10.464 -15.946,19.213 -15.946,19.213 h 12.457 c 0.5,7.972 -23.667,24.916 -23.667,24.916 z"/>
		<path style="fill:#278f12" inkscape:connector-curvature="0" id="path1791" d="m 510.037,925.549 37.123,-0.266 V 851.78 c -0.644,-1.54 -0.997,-2.473 -0.997,-2.473 -6.354,24.083 -22.174,32.391 -22.174,32.391 l 13.205,-0.278 c 2.49,10.464 -15.946,19.213 -15.946,19.213 h 12.457 c 0.499,7.972 -23.668,24.916 -23.668,24.916 z"/>
	</g><g id="g1803" inkscape:export-xdpi="99.999908" inkscape:export-ydpi="99.999908" transform="translate(-134)">
		<rect style="fill:#6e7e51" id="rect1795" height="29.948" width="9.2889996" y="910.77002" x="208.56"/>
		<polygon style="fill:#5a6956" id="polygon1797" points="208.56,940.718 217.849,918.938 208.56,915.104 "/>
		<path style="fill:#4dba4d" inkscape:connector-curvature="0" id="path1799" d="m 170.152,918.938 43.466,-0.31 39.09,-0.274 c -16.336,-7.001 -26.254,-27.422 -26.254,-27.422 l 20.42,-0.583 c 0,0 -23.337,-14.002 -23.337,-23.08 h 15.531 c -0.706,0 -7.824,-5.006 -8.337,-5.508 -7.544,-7.428 -14.44,-22.796 -17.112,-29.196 -0.753,-1.803 -1.167,-2.894 -1.167,-2.894 -7.439,28.198 -25.963,37.924 -25.963,37.924 l 15.461,-0.326 c 2.917,12.252 -18.67,22.496 -18.67,22.496 h 14.586 c 0.583,9.336 -27.714,29.173 -27.714,29.173 z"/>
		<path style="fill:#278f12" inkscape:connector-curvature="0" id="path1801" d="m 170.152,918.938 43.466,-0.31 v -86.063 c -0.753,-1.803 -1.167,-2.894 -1.167,-2.894 -7.439,28.198 -25.963,37.924 -25.963,37.924 l 15.461,-0.326 c 2.917,12.252 -18.67,22.496 -18.67,22.496 h 14.586 c 0.584,9.336 -27.713,29.173 -27.713,29.173 z"/>
	</g><g id="g1813" inkscape:export-xdpi="99.999908" inkscape:export-ydpi="99.999908" transform="translate(-134)">
		<rect style="fill:#6e7e51" id="rect1805" height="21.113001" width="6.5489998" y="924.27502" x="938.008"/>
		<polygon style="fill:#5a6956" id="polygon1807" points="938.008,945.389 944.557,930.033 938.008,927.33 "/>
		<path style="fill:#78ab37" inkscape:connector-curvature="0" id="path1809" d="m 910.931,930.033 30.644,-0.218 27.559,-0.192 C 957.618,924.685 950.625,910.29 950.625,910.29 l 14.396,-0.411 c 0,0 -16.452,-9.872 -16.452,-16.271 h 10.95 c -0.498,0 -5.517,-3.529 -5.879,-3.883 -5.317,-5.235 -10.179,-16.07 -12.063,-20.583 -0.53,-1.271 -0.822,-2.04 -0.822,-2.04 -5.244,19.879 -18.303,26.736 -18.303,26.736 l 10.899,-0.229 c 2.057,8.638 -13.162,15.859 -13.162,15.859 h 10.282 c 0.409,6.581 -19.54,20.565 -19.54,20.565 z"/>
		<path style="fill:#278f12" inkscape:connector-curvature="0" id="path1811" d="m 910.931,930.033 30.644,-0.218 V 869.14 c -0.53,-1.271 -0.822,-2.04 -0.822,-2.04 -5.244,19.879 -18.303,26.736 -18.303,26.736 l 10.899,-0.23 c 2.057,8.639 -13.162,15.86 -13.162,15.86 h 10.282 c 0.411,6.583 -19.538,20.567 -19.538,20.567 z"/>
	</g><g id="g1823" inkscape:export-xdpi="99.999908" inkscape:export-ydpi="99.999908" transform="translate(-134)">
		<rect style="fill:#6e7e51" id="rect1815" height="18.688" width="5.7969999" y="840.237" x="406.76001"/>
		<polygon style="fill:#5a6956" id="polygon1817" points="406.76,858.927 412.557,845.336 406.76,842.942 "/>
		<path style="fill:#78ab37" inkscape:connector-curvature="0" id="path1819" d="m 382.793,845.336 27.124,-0.193 24.394,-0.172 c -10.192,-4.368 -16.383,-17.112 -16.383,-17.112 l 12.742,-0.362 c 0,0 -14.563,-8.738 -14.563,-14.403 h 9.691 c -0.439,0 -4.883,-3.124 -5.203,-3.438 -4.708,-4.636 -9.011,-14.226 -10.679,-18.22 -0.47,-1.125 -0.729,-1.806 -0.729,-1.806 -4.642,17.597 -16.202,23.666 -16.202,23.666 l 9.648,-0.204 c 1.82,7.646 -11.651,14.039 -11.651,14.039 h 9.102 c 0.367,5.825 -17.291,18.205 -17.291,18.205 z"/>
		<path style="fill:#278f12" inkscape:connector-curvature="0" id="path1821" d="m 382.793,845.336 27.124,-0.193 v -53.707 c -0.47,-1.125 -0.729,-1.806 -0.729,-1.806 -4.642,17.597 -16.202,23.666 -16.202,23.666 l 9.648,-0.204 c 1.82,7.646 -11.651,14.039 -11.651,14.039 h 9.102 c 0.366,5.825 -17.292,18.205 -17.292,18.205 z"/>
	</g><g id="g1833" inkscape:export-xdpi="99.999908" inkscape:export-ydpi="99.999908" transform="translate(-134)">
		<rect style="fill:#6e7e51" id="rect1825" height="13.433" width="4.1659999" y="869.36798" x="789.172"/>
		<polygon style="fill:#5a6956" id="polygon1827" points="789.172,882.801 793.338,873.031 789.172,871.313 "/>
		<path style="fill:#78ab37" inkscape:connector-curvature="0" id="path1829" d="m 771.946,873.031 19.494,-0.139 17.532,-0.124 c -7.327,-3.14 -11.774,-12.299 -11.774,-12.299 l 9.158,-0.262 c 0,0 -10.468,-6.279 -10.468,-10.353 h 6.966 c -0.315,0 -3.509,-2.245 -3.738,-2.471 -3.384,-3.33 -6.478,-10.224 -7.676,-13.095 -0.338,-0.81 -0.523,-1.297 -0.523,-1.297 C 787.581,845.637 779.272,850 779.272,850 l 6.936,-0.146 c 1.308,5.496 -8.374,10.091 -8.374,10.091 h 6.541 c 0.263,4.19 -12.429,13.086 -12.429,13.086 z"/>
		<path style="fill:#278f12" inkscape:connector-curvature="0" id="path1831" d="m 771.946,873.031 19.494,-0.139 V 834.29 c -0.338,-0.81 -0.523,-1.297 -0.523,-1.297 -3.336,12.646 -11.645,17.009 -11.645,17.009 l 6.936,-0.146 c 1.308,5.496 -8.374,10.091 -8.374,10.091 h 6.541 c 0.263,4.188 -12.429,13.084 -12.429,13.084 z"/>
	</g><rect style="fill:#6e7e51" id="rect1835" height="17.625999" width="5.4679999" y="919.06598" x="706.44" inkscape:export-xdpi="99.999908" inkscape:export-ydpi="99.999908"/><polygon style="fill:#5a6956" id="polygon1837" points="840.44,936.692 845.908,923.874 840.44,921.618 " inkscape:export-xdpi="99.999908" inkscape:export-ydpi="99.999908" transform="translate(-134)"/><path style="fill:#4dba4d" inkscape:connector-curvature="0" id="path1839" d="m 683.837,923.874 25.582,-0.184 23.006,-0.16 c -9.614,-4.12 -15.452,-16.14 -15.452,-16.14 l 12.02,-0.344 c 0,0 -13.735,-8.24 -13.735,-13.583 h 9.141 c -0.416,0 -4.604,-2.947 -4.906,-3.241 -4.44,-4.372 -8.499,-13.417 -10.072,-17.184 -0.443,-1.062 -0.688,-1.703 -0.688,-1.703 -4.378,16.596 -15.28,22.32 -15.28,22.32 l 9.1,-0.192 c 1.717,7.21 -10.988,13.24 -10.988,13.24 h 8.584 c 0.342,5.496 -16.312,17.171 -16.312,17.171 z" inkscape:export-xdpi="99.999908" inkscape:export-ydpi="99.999908"/><path style="fill:#4dba4d" inkscape:connector-curvature="0" id="path1841" d="m 462.793,868.48 19.521,-0.14 17.557,-0.122 c -7.337,-3.146 -11.792,-12.315 -11.792,-12.315 l 9.171,-0.263 c 0,0 -10.48,-6.288 -10.48,-10.365 h 6.975 c -0.316,0 -3.514,-2.249 -3.744,-2.474 -3.388,-3.336 -6.485,-10.238 -7.686,-13.112 -0.339,-0.81 -0.523,-1.3 -0.523,-1.3 -3.341,12.664 -11.661,17.032 -11.661,17.032 l 6.944,-0.146 c 1.31,5.503 -8.385,10.104 -8.385,10.104 h 6.55 c 0.261,4.192 -12.447,13.101 -12.447,13.101 z" inkscape:export-xdpi="99.999908" inkscape:export-ydpi="99.999908"/><path style="fill:#4dba4d" inkscape:connector-curvature="0" id="path1843" d="m 522.115,876.089 19.521,-0.14 17.557,-0.123 c -7.338,-3.146 -11.791,-12.315 -11.791,-12.315 l 9.171,-0.263 c 0,0 -10.481,-6.288 -10.481,-10.364 h 6.977 c -0.317,0 -3.516,-2.249 -3.744,-2.474 -3.389,-3.336 -6.486,-10.238 -7.687,-13.113 -0.339,-0.81 -0.523,-1.299 -0.523,-1.299 -3.341,12.664 -11.66,17.032 -11.66,17.032 l 6.942,-0.146 c 1.312,5.503 -8.385,10.104 -8.385,10.104 h 6.551 c 0.26,4.192 -12.448,13.101 -12.448,13.101 z" inkscape:export-xdpi="99.999908" inkscape:export-ydpi="99.999908"/><path style="fill:#4dba4d" inkscape:connector-curvature="0" id="path1845" d="m 583.674,833.296 19.521,-0.14 17.556,-0.123 c -7.337,-3.146 -11.791,-12.315 -11.791,-12.315 l 9.171,-0.263 c 0,0 -10.481,-6.288 -10.481,-10.364 h 6.977 c -0.317,0 -3.515,-2.249 -3.744,-2.474 -3.389,-3.336 -6.486,-10.238 -7.686,-13.113 -0.34,-0.81 -0.524,-1.299 -0.524,-1.299 -3.341,12.664 -11.66,17.032 -11.66,17.032 l 6.943,-0.146 c 1.311,5.503 -8.385,10.104 -8.385,10.104 h 6.551 c 0.26,4.192 -12.448,13.101 -12.448,13.101 z" inkscape:export-xdpi="99.999908" inkscape:export-ydpi="99.999908"/><path style="fill:#4dba4d" inkscape:connector-curvature="0" id="path1847" d="m 417.995,828.39 19.521,-0.139 17.557,-0.123 c -7.337,-3.146 -11.792,-12.315 -11.792,-12.315 l 9.171,-0.263 c 0,0 -10.481,-6.288 -10.481,-10.365 h 6.975 c -0.316,0 -3.514,-2.249 -3.743,-2.474 -3.389,-3.336 -6.485,-10.237 -7.687,-13.112 -0.338,-0.81 -0.522,-1.299 -0.522,-1.299 -3.341,12.663 -11.661,17.031 -11.661,17.031 l 6.943,-0.146 c 1.311,5.503 -8.385,10.104 -8.385,10.104 h 6.55 c 0.262,4.192 -12.446,13.101 -12.446,13.101 z" inkscape:export-xdpi="99.999908" inkscape:export-ydpi="99.999908"/><path style="fill:#46b745" inkscape:connector-curvature="0" id="path1853" d="m 65.31,817.06008 19.521,-0.139 17.556,-0.123 c -7.337,-3.146 -11.792,-12.315 -11.792,-12.315 l 9.171,-0.263 c 0,0 -10.481,-6.288 -10.481,-10.365 h 6.975 c -0.317,0 -3.514,-2.249 -3.744,-2.474 -3.388,-3.336 -6.486,-10.237 -7.686,-13.112 -0.338,-0.81 -0.524,-1.299 -0.524,-1.299 -3.341,12.663 -11.661,17.031 -11.661,17.031 l 6.944,-0.146 c 1.31,5.503 -8.385,10.104 -8.385,10.104 h 6.55 c 0.265,4.193 -12.444,13.101 -12.444,13.101 z" inkscape:export-xdpi="99.999908" inkscape:export-ydpi="99.999908"/><path style="fill:#46b745" inkscape:connector-curvature="0" id="path1855" d="m -0.925,868.48 19.521,-0.14 17.556,-0.122 C 28.815,865.072 24.36,855.903 24.36,855.903 l 9.171,-0.263 c 0,0 -10.481,-6.288 -10.481,-10.365 h 6.975 c -0.317,0 -3.514,-2.249 -3.744,-2.474 -3.388,-3.336 -6.485,-10.238 -7.686,-13.112 -0.338,-0.81 -0.524,-1.3 -0.524,-1.3 C 14.73,841.053 6.41,845.421 6.41,845.421 l 6.944,-0.146 c 1.31,5.503 -8.385,10.104 -8.385,10.104 h 6.55 c 0.264,4.192 -12.444,13.101 -12.444,13.101 z" inkscape:export-xdpi="99.999908" inkscape:export-ydpi="99.999908"/><path style="fill:#46b745" inkscape:connector-curvature="0" id="path1857" d="m 303.508,780.366 19.521,-0.141 17.556,-0.123 c -7.337,-3.145 -11.792,-12.314 -11.792,-12.314 l 9.172,-0.264 c 0,0 -10.481,-6.286 -10.481,-10.363 h 6.976 c -0.317,0 -3.514,-2.249 -3.744,-2.475 -3.388,-3.336 -6.485,-10.237 -7.686,-13.112 -0.338,-0.81 -0.524,-1.3 -0.524,-1.3 -3.341,12.664 -11.661,17.032 -11.661,17.032 l 6.944,-0.146 c 1.31,5.503 -8.385,10.104 -8.385,10.104 h 6.55 c 0.262,4.193 -12.446,13.102 -12.446,13.102 z" inkscape:export-xdpi="99.999908" inkscape:export-ydpi="99.999908"/><path style="fill:#278f12" inkscape:connector-curvature="0" id="path1859" d="m 683.837,923.874 25.582,-0.184 v -50.65 c -0.443,-1.062 -0.688,-1.703 -0.688,-1.703 -4.377,16.596 -15.28,22.32 -15.28,22.32 l 9.1,-0.192 c 1.717,7.21 -10.987,13.24 -10.987,13.24 h 8.584 c 0.343,5.494 -16.311,17.169 -16.311,17.169 z" inkscape:export-xdpi="99.999908" inkscape:export-ydpi="99.999908"/><path style="fill:#92f811" inkscape:connector-curvature="0" id="path1861" d="M 276.821,960.916" inkscape:export-xdpi="99.999908" inkscape:export-ydpi="99.999908"/><g id="g1875" inkscape:export-xdpi="99.999908" inkscape:export-ydpi="99.999908">
		<path style="fill:#89600e" inkscape:connector-curvature="0" id="path1863" d="m 1528.469,888.389 c 0,0 7.566,-5.067 8.122,-12.842 0.629,-8.803 0.201,-10.343 0.201,-10.343 h -1.034 c 0,0 0.208,6.315 -0.903,12.354 -0.545,2.965 -5.065,6.524 -6.386,7.357 -1.317,0.833 0,0.209 0,0.209 v 1.942"/>
		<polygon style="fill:#89600e" id="polygon1865" points="1529.253,876.797 1523.978,876.797 1523.978,891.367 1523.978,919.556 1529.253,919.556 "/>
		<path style="fill:#46a722" inkscape:connector-curvature="0" id="path1867" d="m 1529.241,877.353 c -2.452,-0.286 2.012,1.805 -5.764,1.665 -7.774,-0.139 -12.633,-4.72 -13.05,-10.272 -0.416,-5.554 -6.247,-2.916 -9.022,-10.967 -2.776,-8.053 1.527,-12.355 1.527,-12.355 0,0 -4.859,2.498 -6.388,-5.97 -1.526,-8.47 6.247,-13.884 11.938,-11.245 5.692,2.638 -1.326,-8.946 12.494,-10.273 5.246,-0.503 3.889,6.388 14.297,2.223 4.051,-1.62 13.608,2.915 10.416,12.494 -3.193,9.578 9.854,1.573 14.299,12.077 3.055,7.22 -3.332,16.243 -8.746,17.354 -5.414,1.111 0,5.831 -4.721,7.636 -4.721,1.804 -4.027,10.321 -8.19,10.134 -4.16,-0.192 -4.4,-1.955 -9.09,-2.501 z"/>
		<path style="fill:#49b138" inkscape:connector-curvature="0" id="path1869" d="m 1504.96,841.935 c 1.133,6.238 4.715,4.397 4.715,4.397 0,0 -3.174,3.174 -1.133,9.104 2.049,5.939 6.347,3.99 6.654,8.088 0.309,4.091 3.891,7.473 9.621,7.571 5.73,0.102 2.439,-1.441 4.248,-1.225 2.981,0.342 3.522,1.357 5.58,1.717 0.325,0.059 0.691,0.106 1.116,0.125 3.073,0.133 2.565,-6.139 6.039,-7.473 3.481,-1.332 -0.508,-4.813 3.481,-5.632 3.99,-0.815 8.695,-7.471 6.447,-12.794 -3.273,-7.737 -12.896,-1.841 -10.537,-8.896 2.092,-6.281 -3.248,-9.621 -6.547,-9.446 -0.416,0.025 -0.801,0.102 -1.134,0.233 -7.671,3.064 -6.672,-2.009 -10.536,-1.643 -10.188,0.983 -5.015,9.521 -9.213,7.571 -4.196,-1.935 -9.926,2.056 -8.801,8.303 z"/>
		<path style="fill:#55bf37" inkscape:connector-curvature="0" id="path1871" d="m 1512.668,846.829 c 0.765,4.201 3.175,2.961 3.175,2.961 0,0 -2.137,2.139 -0.763,6.132 1.381,4 4.274,2.688 4.481,5.447 0.209,2.754 2.621,5.031 6.479,5.1 3.859,0.068 1.644,-0.972 2.86,-0.826 2.008,0.23 2.373,0.915 3.759,1.156 0.219,0.04 0.466,0.073 0.751,0.085 2.07,0.089 1.729,-4.135 4.066,-5.033 2.346,-0.896 -0.342,-3.241 2.346,-3.791 2.688,-0.55 5.855,-5.031 4.342,-8.616 -2.204,-5.212 -8.684,-1.239 -7.096,-5.991 1.408,-4.229 -2.188,-6.479 -4.409,-6.361 -0.28,0.018 -0.539,0.068 -0.763,0.157 -5.166,2.063 -4.494,-1.353 -7.098,-1.105 -6.859,0.663 -3.377,6.412 -6.203,5.101 -2.824,-1.311 -6.685,1.377 -5.927,5.584 z"/>
		<path style="fill:#89600e" inkscape:connector-curvature="0" id="path1873" d="m 1524.428,887.139 c 0,0 -3.54,1.666 -2.985,-3.471 0.557,-5.138 -1.109,-10.481 -1.109,-10.481 h -1.457 c 0,0 1.546,6.738 0.832,10.135 -1.18,5.623 4.165,7.566 4.721,8.33 0.551,0.762 0,-4.513 0,-4.513 z"/>
	</g><path style="fill:#92f811" inkscape:connector-curvature="0" id="path1877" d="M 789.08,927.911" inkscape:export-xdpi="99.999908" inkscape:export-ydpi="99.999908"/><g id="g1893" inkscape:export-xdpi="99.999908" inkscape:export-ydpi="99.999908" transform="translate(-134)">
		<path style="fill:#89600e" inkscape:connector-curvature="0" id="path1879" d="m 766.959,924.674 c 0,0 -0.097,8.329 4.172,7.497 v 1.666 c 0,0 -4.997,-1.25 -4.172,-9.163 z"/>
		<path style="fill:#89600e" inkscape:connector-curvature="0" id="path1881" d="m 775.725,924.74 c 0,0 0.098,10.791 -4.172,9.712 v 2.157 c 0,10e-4 4.998,-1.618 4.172,-11.869 z"/>
		<g id="g1889">
			<path style="fill:#46a722" inkscape:connector-curvature="0" id="path1883" d="m 773.149,926.569 c -1.84,-0.191 1.51,1.203 -4.322,1.11 -5.832,-0.092 -9.479,-3.149 -9.789,-6.86 -0.313,-3.707 -4.688,-1.946 -6.771,-7.324 -2.083,-5.377 1.146,-8.251 1.146,-8.251 0,0 -3.646,1.669 -4.791,-3.987 -1.146,-5.654 4.687,-9.271 8.957,-7.51 4.27,1.763 -0.996,-5.976 9.373,-6.86 3.935,-0.337 2.916,4.265 10.725,1.483 3.039,-1.082 10.209,1.946 7.813,8.345 -2.396,6.397 7.393,1.051 10.728,8.065 2.291,4.82 -2.5,10.849 -6.562,11.59 -4.063,0.741 0,3.895 -3.541,5.1 -3.541,1.205 -3.021,6.893 -6.146,6.768 -3.125,-0.125 -3.3,-1.302 -6.82,-1.669 z"/>
			<path style="fill:#49b138" inkscape:connector-curvature="0" id="path1885" d="m 754.935,902.916 c 0.852,4.165 3.537,2.937 3.537,2.937 0,0 -2.381,2.12 -0.85,6.08 1.537,3.967 4.762,2.665 4.992,5.401 0.23,2.73 2.918,4.99 7.218,5.058 4.3,0.066 1.831,-0.964 3.187,-0.817 2.237,0.229 2.645,0.906 4.188,1.146 0.243,0.039 0.519,0.073 0.837,0.084 2.306,0.089 1.925,-4.1 4.53,-4.99 2.612,-0.89 -0.381,-3.215 2.612,-3.761 2.992,-0.545 6.523,-4.989 4.836,-8.544 -2.455,-5.168 -9.674,-1.229 -7.904,-5.941 1.567,-4.193 -2.438,-6.426 -4.911,-6.309 -0.313,0.018 -0.601,0.066 -0.851,0.156 -5.756,2.047 -5.006,-1.342 -7.904,-1.098 -7.644,0.656 -3.762,6.358 -6.911,5.058 -3.15,-1.297 -7.45,1.368 -6.606,5.54 z"/>
			<path style="fill:#55bf37" inkscape:connector-curvature="0" id="path1887" d="m 760.718,906.185 c 0.572,2.807 2.382,1.979 2.382,1.979 0,0 -1.604,1.428 -0.571,4.096 1.035,2.67 3.207,1.793 3.361,3.638 0.156,1.839 1.967,3.36 4.86,3.405 2.896,0.045 1.233,-0.648 2.146,-0.552 1.506,0.154 1.779,0.61 2.819,0.771 0.165,0.026 0.351,0.05 0.564,0.057 1.553,0.061 1.296,-2.761 3.051,-3.36 1.759,-0.599 -0.257,-2.166 1.759,-2.532 2.016,-0.366 4.395,-3.359 3.258,-5.755 -1.654,-3.479 -6.515,-0.828 -5.324,-4.001 1.058,-2.825 -1.641,-4.327 -3.308,-4.249 -0.21,0.014 -0.403,0.046 -0.572,0.105 -3.875,1.379 -3.37,-0.903 -5.322,-0.738 -5.147,0.442 -2.533,4.283 -4.654,3.406 -2.122,-0.876 -5.018,0.92 -4.449,3.73 z"/>
		</g>
		<rect style="fill:#89600e" id="rect1891" height="15.76" width="1.541" y="927.44702" x="770.96002"/>
	</g><path style="fill:#89600e" inkscape:connector-curvature="0" id="path1895" d="m 11.928,921.276 c 0,0 -0.098,8.329 4.171,7.496 v 1.666 c 0,0 -4.998,-1.249 -4.171,-9.162 z" inkscape:export-xdpi="99.999908" inkscape:export-ydpi="99.999908"/><path style="fill:#89600e" inkscape:connector-curvature="0" id="path1897" d="m 20.692,921.343 c 0,0 0.098,10.791 -4.171,9.712 v 2.158 c 0,0 4.998,-1.619 4.171,-11.87 z" inkscape:export-xdpi="99.999908" inkscape:export-ydpi="99.999908"/><path style="fill:#46a722" inkscape:connector-curvature="0" id="path1899" d="m 23.176,923.782 c -1.839,-0.191 1.51,1.204 -4.323,1.111 -5.833,-0.093 -9.477,-3.151 -9.789,-6.86 -0.312,-3.709 -4.687,-1.947 -6.771,-7.325 -2.083,-5.377 1.147,-8.252 1.147,-8.252 0,0 -3.646,1.67 -4.791,-3.986 -1.146,-5.654 4.687,-9.271 8.956,-7.51 4.271,1.763 -0.996,-5.976 9.374,-6.859 3.934,-0.337 2.915,4.265 10.725,1.481 3.039,-1.081 10.209,1.948 7.814,8.346 -2.396,6.396 7.393,1.052 10.728,8.065 2.291,4.821 -2.5,10.849 -6.561,11.59 -4.063,0.741 0,3.896 -3.542,5.101 -3.542,1.205 -3.021,6.893 -6.145,6.768 -3.124,-0.125 -3.304,-1.305 -6.822,-1.67 z" inkscape:export-xdpi="99.999908" inkscape:export-ydpi="99.999908"/><path style="fill:#49b138" inkscape:connector-curvature="0" id="path1901" d="m 3.44,902.456 c 0.849,4.166 3.537,2.938 3.537,2.938 0,0 -2.382,2.119 -0.851,6.08 1.538,3.966 4.762,2.665 4.993,5.4 0.231,2.731 2.918,4.99 7.218,5.058 4.299,0.066 1.83,-0.963 3.186,-0.818 2.238,0.229 2.644,0.908 4.188,1.146 0.244,0.038 0.519,0.071 0.838,0.084 2.305,0.089 1.924,-4.101 4.529,-4.99 2.613,-0.892 -0.381,-3.215 2.613,-3.761 2.993,-0.545 6.523,-4.99 4.836,-8.545 -2.457,-5.169 -9.673,-1.229 -7.905,-5.941 1.568,-4.193 -2.437,-6.425 -4.912,-6.308 -0.313,0.017 -0.601,0.065 -0.849,0.155 -5.756,2.046 -5.006,-1.342 -7.906,-1.097 -7.643,0.656 -3.761,6.358 -6.911,5.057 -3.148,-1.295 -7.448,1.37 -6.604,5.542 z" inkscape:export-xdpi="99.999908" inkscape:export-ydpi="99.999908"/><path style="fill:#55bf37" inkscape:connector-curvature="0" id="path1903" d="m 11.976916,906.5944 c 0.573,2.806 2.381,1.978 2.381,1.978 0,0 -1.602,1.429 -0.572,4.097 1.036,2.671 3.208,1.794 3.363,3.638 0.156,1.84 1.965,3.359 4.861,3.406 2.896,0.045 1.234,-0.649 2.146,-0.553 1.506,0.154 1.78,0.61 2.819,0.772 0.164,0.024 0.35,0.049 0.564,0.056 1.552,0.062 1.297,-2.761 3.05,-3.36 1.76,-0.6 -0.255,-2.165 1.76,-2.531 2.016,-0.367 4.393,-3.361 3.257,-5.755 -1.655,-3.48 -6.516,-0.828 -5.325,-4.001 1.057,-2.825 -1.64,-4.327 -3.308,-4.249 -0.21,0.012 -0.403,0.046 -0.571,0.104 -3.877,1.38 -3.371,-0.901 -5.325,-0.737 -5.146,0.442 -2.533,4.282 -4.654,3.405 -2.119,-0.874 -5.014,0.921 -4.446,3.73 z" inkscape:export-xdpi="99.999908" inkscape:export-ydpi="99.999908" inkscape:transform-center-x="-8.7150839" inkscape:transform-center-y="6.7039107"/><rect style="fill:#89600e" id="rect1905" height="15.76" width="1.541" y="924.04999" x="15.927994" inkscape:export-xdpi="99.999908" inkscape:export-ydpi="99.999908"/><g id="g1921" inkscape:export-xdpi="99.999908" inkscape:export-ydpi="99.999908" transform="translate(-134)">
		<path style="fill:#89600e" inkscape:connector-curvature="0" id="path1907" d="m 640.553,927.726 c 0,0 -0.098,8.33 4.172,7.497 v 1.666 c 0,0 -4.997,-1.25 -4.172,-9.163 z"/>
		<path style="fill:#89600e" inkscape:connector-curvature="0" id="path1909" d="m 649.317,927.793 c 0,0 0.099,10.791 -4.172,9.711 v 2.158 c 10e-4,0 4.999,-1.619 4.172,-11.869 z"/>
		<g id="g1917">
			<path style="fill:#46a722" inkscape:connector-curvature="0" id="path1911" d="m 646.744,929.622 c -1.839,-0.192 1.51,1.204 -4.322,1.11 -5.832,-0.093 -9.478,-3.15 -9.79,-6.86 -0.313,-3.708 -4.687,-1.947 -6.771,-7.324 -2.082,-5.377 1.146,-8.252 1.146,-8.252 0,0 -3.645,1.669 -4.79,-3.986 -1.146,-5.654 4.687,-9.271 8.956,-7.51 4.271,1.762 -0.996,-5.976 9.374,-6.86 3.935,-0.337 2.915,4.266 10.726,1.482 3.037,-1.082 10.207,1.947 7.813,8.345 -2.396,6.397 7.393,1.052 10.727,8.066 2.293,4.819 -2.498,10.848 -6.561,11.589 -4.063,0.742 0,3.895 -3.541,5.1 -3.542,1.206 -3.021,6.895 -6.146,6.769 -3.123,-0.127 -3.302,-1.304 -6.821,-1.669 z"/>
			<path style="fill:#49b138" inkscape:connector-curvature="0" id="path1913" d="m 628.529,905.968 c 0.85,4.166 3.536,2.938 3.536,2.938 0,0 -2.382,2.119 -0.851,6.08 1.537,3.967 4.763,2.664 4.993,5.4 0.23,2.731 2.918,4.991 7.218,5.059 4.299,0.065 1.831,-0.964 3.187,-0.818 2.237,0.229 2.644,0.908 4.188,1.146 0.244,0.039 0.521,0.072 0.838,0.083 2.307,0.09 1.924,-4.1 4.529,-4.989 2.613,-0.891 -0.381,-3.216 2.613,-3.762 2.992,-0.545 6.522,-4.988 4.837,-8.544 -2.457,-5.168 -9.675,-1.229 -7.905,-5.94 1.568,-4.194 -2.438,-6.427 -4.912,-6.31 -0.313,0.019 -0.6,0.067 -0.85,0.156 -5.756,2.047 -5.006,-1.341 -7.904,-1.097 -7.645,0.657 -3.762,6.358 -6.912,5.057 -3.149,-1.296 -7.449,1.369 -6.605,5.541 z"/>
			<path style="fill:#55bf37" inkscape:connector-curvature="0" id="path1915" d="m 634.312,909.237 c 0.572,2.806 2.382,1.978 2.382,1.978 0,0 -1.604,1.429 -0.572,4.096 1.036,2.67 3.207,1.794 3.362,3.639 0.155,1.839 1.966,3.359 4.86,3.404 2.896,0.046 1.233,-0.647 2.146,-0.551 1.507,0.153 1.78,0.609 2.818,0.771 0.165,0.025 0.352,0.049 0.564,0.057 1.553,0.06 1.296,-2.761 3.051,-3.361 1.761,-0.599 -0.256,-2.165 1.761,-2.53 2.016,-0.368 4.394,-3.361 3.258,-5.757 -1.654,-3.479 -6.517,-0.826 -5.325,-4.001 1.058,-2.824 -1.64,-4.325 -3.308,-4.248 -0.211,0.013 -0.403,0.046 -0.571,0.104 -3.876,1.38 -3.371,-0.903 -5.324,-0.737 -5.146,0.442 -2.533,4.282 -4.654,3.405 -2.122,-0.875 -5.016,0.921 -4.448,3.731 z"/>
		</g>
		<rect style="fill:#89600e" id="rect1919" height="15.759" width="1.5420001" y="930.5" x="644.55298"/>
	</g><g id="g1937" inkscape:export-xdpi="99.999908" inkscape:export-ydpi="99.999908" transform="translate(-134)">
		<path style="fill:#89600e" inkscape:connector-curvature="0" id="path1923" d="m 449.688,929.071 c 0,0 -0.07,5.979 2.994,5.382 v 1.194 c 10e-4,10e-4 -3.587,-0.895 -2.994,-6.576 z"/>
		<path style="fill:#89600e" inkscape:connector-curvature="0" id="path1925" d="m 455.981,929.118 c 0,0 0.068,7.747 -2.995,6.973 v 1.549 c -10e-4,0 3.587,-1.162 2.995,-8.522 z"/>
		<g id="g1933">
			<path style="fill:#46a722" inkscape:connector-curvature="0" id="path1927" d="m 454.132,930.432 c -1.32,-0.137 1.083,0.864 -3.104,0.799 -4.188,-0.065 -6.805,-2.263 -7.028,-4.926 -0.224,-2.662 -3.365,-1.397 -4.86,-5.259 -1.495,-3.86 0.823,-5.924 0.823,-5.924 0,0 -2.617,1.197 -3.438,-2.861 -0.823,-4.06 3.363,-6.656 6.43,-5.392 3.065,1.264 -0.714,-4.29 6.729,-4.927 2.824,-0.24 2.094,3.063 7.699,1.065 2.182,-0.777 7.329,1.397 5.609,5.991 -1.721,4.592 5.307,0.754 7.701,5.79 1.645,3.461 -1.795,7.787 -4.711,8.318 -2.915,0.533 0,2.798 -2.541,3.661 -2.543,0.866 -2.17,4.948 -4.411,4.859 -2.243,-0.087 -2.372,-0.932 -4.898,-1.194 z"/>
			<path style="fill:#49b138" inkscape:connector-curvature="0" id="path1929" d="m 441.056,913.451 c 0.61,2.989 2.539,2.106 2.539,2.106 0,0 -1.709,1.522 -0.608,4.365 1.104,2.848 3.418,1.913 3.584,3.878 0.166,1.961 2.095,3.582 5.182,3.63 3.086,0.049 1.314,-0.69 2.287,-0.587 1.605,0.164 1.897,0.651 3.006,0.822 0.175,0.028 0.372,0.052 0.601,0.061 1.655,0.064 1.383,-2.942 3.253,-3.583 1.875,-0.638 -0.273,-2.308 1.875,-2.699 2.147,-0.391 4.684,-3.581 3.472,-6.134 -1.763,-3.71 -6.944,-0.882 -5.674,-4.266 1.125,-3.011 -1.75,-4.612 -3.526,-4.528 -0.225,0.014 -0.431,0.048 -0.61,0.112 -4.132,1.469 -3.594,-0.963 -5.675,-0.787 -5.486,0.471 -2.701,4.564 -4.961,3.629 -2.265,-0.928 -5.351,0.985 -4.745,3.981 z"/>
			<path style="fill:#55bf37" inkscape:connector-curvature="0" id="path1931" d="m 445.207,915.798 c 0.411,2.014 1.71,1.419 1.71,1.419 0,0 -1.151,1.025 -0.411,2.94 0.743,1.918 2.302,1.287 2.414,2.61 0.112,1.32 1.412,2.413 3.49,2.445 2.079,0.031 0.885,-0.466 1.541,-0.396 1.082,0.111 1.277,0.438 2.023,0.556 0.119,0.019 0.251,0.034 0.405,0.04 1.115,0.043 0.931,-1.982 2.19,-2.412 1.263,-0.432 -0.185,-1.556 1.263,-1.817 1.447,-0.265 3.153,-2.414 2.338,-4.132 -1.188,-2.499 -4.677,-0.595 -3.822,-2.873 0.758,-2.027 -1.178,-3.104 -2.375,-3.05 -0.149,0.009 -0.29,0.033 -0.41,0.075 -2.781,0.991 -2.42,-0.648 -3.821,-0.529 -3.695,0.317 -1.819,3.074 -3.341,2.445 -1.524,-0.628 -3.602,0.661 -3.194,2.679 z"/>
		</g>
		<rect style="fill:#89600e" id="rect1935" height="11.313" width="1.107" y="931.06299" x="452.56"/>
	</g><g id="g1953" inkscape:export-xdpi="99.999908" inkscape:export-ydpi="99.999908" transform="translate(-134)">
		<path style="fill:#89600e" inkscape:connector-curvature="0" id="path1939" d="m 385.144,911.021 c 0,0 -0.14,12.005 6.012,10.806 v 2.398 c -0.001,10e-4 -7.203,-1.799 -6.012,-13.204 z"/>
		<path style="fill:#89600e" inkscape:connector-curvature="0" id="path1941" d="m 397.777,911.116 c 0,0 0.139,15.553 -6.013,13.998 v 3.109 c 0,0.002 7.203,-2.333 6.013,-17.107 z"/>
		<g id="g1949">
			<path style="fill:#46a722" inkscape:connector-curvature="0" id="path1943" d="m 394.067,913.753 c -2.652,-0.275 2.174,1.734 -6.232,1.602 -8.405,-0.132 -13.66,-4.541 -14.109,-9.888 -0.451,-5.346 -6.756,-2.807 -9.758,-10.557 -3.001,-7.75 1.652,-11.896 1.652,-11.896 0,0 -5.255,2.407 -6.905,-5.745 -1.652,-8.149 6.754,-13.362 12.909,-10.825 6.155,2.541 -1.435,-8.612 13.51,-9.888 5.67,-0.485 4.204,6.146 15.458,2.137 4.379,-1.559 14.714,2.81 11.261,12.028 -3.451,9.219 10.656,1.514 15.461,11.625 3.303,6.95 -3.602,15.637 -9.455,16.704 -5.854,1.069 0,5.614 -5.104,7.351 -5.103,1.738 -4.354,9.935 -8.856,9.756 -4.502,-0.18 -4.762,-1.879 -9.832,-2.404 z"/>
			<path style="fill:#49b138" inkscape:connector-curvature="0" id="path1945" d="m 367.813,879.66 c 1.225,6.006 5.097,4.231 5.097,4.231 0,0 -3.431,3.057 -1.224,8.766 2.216,5.717 6.863,3.841 7.195,7.783 0.333,3.938 4.207,7.192 10.403,7.289 6.196,0.097 2.639,-1.388 4.592,-1.18 3.225,0.331 3.81,1.309 6.035,1.651 0.352,0.058 0.747,0.104 1.207,0.122 3.323,0.128 2.773,-5.91 6.529,-7.193 3.766,-1.281 -0.55,-4.633 3.766,-5.42 4.313,-0.786 9.403,-7.19 6.97,-12.314 -3.539,-7.448 -13.941,-1.771 -11.393,-8.563 2.26,-6.044 -3.514,-9.261 -7.08,-9.091 -0.45,0.022 -0.864,0.096 -1.225,0.225 -8.295,2.948 -7.214,-1.934 -11.394,-1.582 -11.015,0.946 -5.421,9.167 -9.96,7.288 -4.538,-1.866 -10.734,1.975 -9.518,7.988 z"/>
			<path style="fill:#55bf37" inkscape:connector-curvature="0" id="path1947" d="m 376.148,884.371 c 0.824,4.045 3.433,2.85 3.433,2.85 0,0 -2.311,2.061 -0.826,5.904 1.493,3.85 4.623,2.586 4.846,5.242 0.226,2.649 2.833,4.844 7.006,4.908 4.173,0.064 1.777,-0.936 3.093,-0.796 2.171,0.224 2.566,0.881 4.063,1.113 0.239,0.037 0.505,0.07 0.813,0.082 2.239,0.086 1.869,-3.98 4.398,-4.844 2.535,-0.865 -0.371,-3.121 2.535,-3.648 2.906,-0.531 6.332,-4.846 4.694,-8.296 -2.383,-5.017 -9.389,-1.193 -7.673,-5.768 1.522,-4.071 -2.365,-6.236 -4.77,-6.123 -0.301,0.017 -0.581,0.064 -0.824,0.149 -5.586,1.989 -4.859,-1.302 -7.672,-1.062 -7.418,0.637 -3.651,6.172 -6.708,4.908 -3.055,-1.256 -7.228,1.332 -6.408,5.381 z"/>
		</g>
		<rect style="fill:#89600e" id="rect1951" height="22.712999" width="2.2219999" y="915.02002" x="390.91"/>
	</g><g id="g1967" inkscape:export-xdpi="99.999908" inkscape:export-ydpi="99.999908">
		<path style="fill:#89600e" inkscape:connector-curvature="0" id="path1955" d="m 1582.173,900.54 c 0,0 0.098,8.33 -4.172,7.497 v 1.666 c 0,0 4.998,-1.25 4.172,-9.163 z"/>
		<path style="fill:#89600e" inkscape:connector-curvature="0" id="path1957" d="m 1573.409,900.607 c 0,0 -0.098,10.791 4.171,9.712 v 2.157 c 0,10e-4 -4.998,-1.618 -4.171,-11.869 z"/>
		<path style="fill:#80e40a" inkscape:connector-curvature="0" id="path1959" d="m 1575.981,902.437 c 1.84,-0.191 -1.51,1.204 4.323,1.111 5.832,-0.092 9.478,-3.151 9.789,-6.861 0.313,-3.708 4.687,-1.946 6.771,-7.323 2.084,-5.378 -1.146,-8.253 -1.146,-8.253 0,0 3.646,1.67 4.792,-3.985 1.146,-5.655 -4.688,-9.271 -8.956,-7.51 -4.271,1.762 0.996,-5.977 -9.374,-6.86 -3.935,-0.337 -2.915,4.265 -10.726,1.482 -3.039,-1.082 -10.208,1.946 -7.813,8.345 2.396,6.396 -7.393,1.052 -10.728,8.065 -2.291,4.82 2.5,10.85 6.561,11.589 4.063,0.742 0,3.896 3.543,5.101 3.541,1.206 3.021,6.894 6.146,6.769 3.121,-0.128 3.301,-1.305 6.818,-1.67 z"/>
		<path style="fill:#7dce15" inkscape:connector-curvature="0" id="path1961" d="m 1594.197,878.782 c -0.849,4.166 -3.537,2.937 -3.537,2.937 0,0 2.382,2.12 0.851,6.081 -1.537,3.966 -4.762,2.664 -4.992,5.4 -0.23,2.731 -2.918,4.99 -7.219,5.058 -4.299,0.066 -1.83,-0.963 -3.186,-0.818 -2.238,0.229 -2.646,0.908 -4.188,1.146 -0.243,0.039 -0.52,0.072 -0.838,0.083 -2.306,0.089 -1.925,-4.1 -4.528,-4.99 -2.613,-0.89 0.381,-3.215 -2.613,-3.761 -2.993,-0.545 -6.523,-4.989 -4.836,-8.544 2.455,-5.168 9.672,-1.229 7.903,-5.941 -1.567,-4.193 2.438,-6.426 4.912,-6.309 0.313,0.018 0.601,0.066 0.849,0.156 5.758,2.047 5.008,-1.342 7.905,-1.098 7.645,0.657 3.763,6.359 6.911,5.058 3.15,-1.296 7.451,1.37 6.606,5.542 z"/>
		<path style="fill:#91e517" inkscape:connector-curvature="0" id="path1963" d="m 1582.18,879.713 c -0.681,3.33 -2.827,2.347 -2.827,2.347 0,0 1.902,1.695 0.681,4.861 -1.23,3.169 -3.808,2.129 -3.991,4.317 -0.186,2.183 -2.333,3.986 -5.77,4.042 -3.438,0.053 -1.465,-0.771 -2.549,-0.654 -1.787,0.183 -2.11,0.724 -3.346,0.916 -0.195,0.031 -0.415,0.058 -0.67,0.065 -1.842,0.071 -1.539,-3.275 -3.62,-3.988 -2.089,-0.711 0.304,-2.569 -2.089,-3.004 -2.393,-0.438 -5.214,-3.989 -3.866,-6.83 1.964,-4.133 7.733,-0.983 6.319,-4.749 -1.254,-3.354 1.947,-5.138 3.926,-5.044 0.25,0.016 0.479,0.055 0.678,0.126 4.603,1.637 4.002,-1.071 6.32,-0.876 6.107,0.524 3.006,5.083 5.523,4.042 2.517,-1.037 5.954,1.094 5.281,4.429 z"/>
		<rect style="fill:#89600e" id="rect1965" height="15.76" width="1.541" y="903.31403" x="1576.632"/>
	</g><g id="g1981" inkscape:export-xdpi="99.999908" inkscape:export-ydpi="99.999908">
		<path style="fill:#89600e" inkscape:connector-curvature="0" id="path1969" d="m 1784.396,906.535 c 0,0 0.099,8.33 -4.172,7.497 v 1.666 c 0,0 4.998,-1.25 4.172,-9.163 z"/>
		<path style="fill:#89600e" inkscape:connector-curvature="0" id="path1971" d="m 1775.632,906.603 c 0,0 -0.098,10.791 4.171,9.711 v 2.158 c 0,0 -4.998,-1.618 -4.171,-11.869 z"/>
		<path style="fill:#80e40a" inkscape:connector-curvature="0" id="path1973" d="m 1778.205,908.432 c 1.839,-0.191 -1.511,1.204 4.323,1.111 5.832,-0.092 9.477,-3.151 9.789,-6.861 0.313,-3.708 4.687,-1.947 6.771,-7.324 2.083,-5.377 -1.147,-8.252 -1.147,-8.252 0,0 3.646,1.669 4.793,-3.985 1.146,-5.655 -4.688,-9.271 -8.957,-7.511 -4.271,1.763 0.996,-5.976 -9.373,-6.859 -3.936,-0.337 -2.916,4.265 -10.727,1.481 -3.039,-1.082 -10.208,1.947 -7.813,8.346 2.396,6.396 -7.394,1.052 -10.729,8.065 -2.291,4.82 2.5,10.85 6.561,11.589 4.063,0.742 0,3.896 3.543,5.101 3.541,1.206 3.021,6.894 6.146,6.769 3.122,-0.128 3.302,-1.305 6.82,-1.67 z"/>
		<path style="fill:#7dce15" inkscape:connector-curvature="0" id="path1975" d="m 1796.42,884.778 c -0.849,4.166 -3.537,2.937 -3.537,2.937 0,0 2.382,2.12 0.851,6.081 -1.537,3.966 -4.762,2.664 -4.991,5.4 -0.231,2.731 -2.919,4.99 -7.22,5.058 -4.299,0.065 -1.83,-0.963 -3.186,-0.818 -2.238,0.229 -2.645,0.908 -4.188,1.146 -0.244,0.039 -0.521,0.072 -0.838,0.083 -2.307,0.089 -1.926,-4.101 -4.529,-4.99 -2.613,-0.89 0.381,-3.215 -2.613,-3.761 -2.993,-0.545 -6.523,-4.989 -4.836,-8.544 2.456,-5.168 9.673,-1.229 7.904,-5.941 -1.568,-4.193 2.438,-6.426 4.912,-6.309 0.313,0.018 0.6,0.066 0.849,0.156 5.757,2.047 5.007,-1.342 7.905,-1.098 7.644,0.657 3.762,6.359 6.91,5.058 3.151,-1.296 7.452,1.369 6.607,5.542 z"/>
		<path style="fill:#91e517" inkscape:connector-curvature="0" id="path1977" d="m 1784.401,885.708 c -0.681,3.33 -2.826,2.347 -2.826,2.347 0,0 1.902,1.695 0.68,4.861 -1.23,3.169 -3.808,2.129 -3.99,4.316 -0.187,2.184 -2.334,3.987 -5.771,4.042 -3.437,0.054 -1.464,-0.77 -2.548,-0.653 -1.787,0.183 -2.111,0.724 -3.346,0.916 -0.195,0.03 -0.416,0.058 -0.67,0.065 -1.843,0.071 -1.539,-3.275 -3.621,-3.988 -2.088,-0.711 0.304,-2.569 -2.088,-3.005 -2.394,-0.437 -5.215,-3.988 -3.867,-6.829 1.965,-4.133 7.733,-0.983 6.319,-4.75 -1.254,-3.354 1.947,-5.137 3.927,-5.044 0.25,0.017 0.479,0.056 0.678,0.126 4.602,1.638 4.002,-1.07 6.32,-0.876 6.106,0.525 3.006,5.083 5.523,4.042 2.518,-1.036 5.954,1.095 5.28,4.43 z"/>
		<rect style="fill:#89600e" id="rect1979" height="15.759" width="1.541" y="909.31" x="1778.854"/>
	</g><g id="g2031" inkscape:export-xdpi="99.999908" inkscape:export-ydpi="99.999908">
		<path style="fill:#edd5b4" inkscape:connector-curvature="0" id="path1997" d="m 1287.147,951.787 h -27.329 c -5.29,-11.521 7.55,-52.101 13.079,-68.359 1.431,-4.229 2.37,-6.811 2.37,-6.811 -1.57,65.03 11.88,75.17 11.88,75.17 z"/>
		<path style="fill:#e2c8aa" inkscape:connector-curvature="0" id="path1999" d="m 1287.147,951.787 h -16.6 c -4.439,-12.25 -0.391,-48.341 2.35,-68.359 1.431,-4.229 2.37,-6.811 2.37,-6.811 -1.57,65.03 11.88,75.17 11.88,75.17 z"/>
		<g id="g2013">
			<path style="fill:#3db220" inkscape:connector-curvature="0" id="path2001" d="m 1227.702,915.99 c 0,0 20.07,-43.636 49.151,-29.119 0,0 -21.108,-22.725 -39.634,-4.742 -18.523,17.983 -9.517,33.861 -9.517,33.861 z"/>
			<path style="fill:#3db220" inkscape:connector-curvature="0" id="path2003" d="m 1239.149,842.409 c 0,0 41,-3.483 33.747,41.019 0,0 10.305,-16.369 2.044,-34.32 -8.256,-17.955 -35.791,-6.699 -35.791,-6.699 z"/>
			<path style="fill:#278f12" inkscape:connector-curvature="0" id="path2005" d="m 1311.118,929.006 c 0,0 -5.239,-47.743 -37.419,-43.171 0,0 27.214,-14.881 39.1,8.037 11.885,22.918 -1.681,35.134 -1.681,35.134 z"/>
			<path style="fill:#278f12" inkscape:connector-curvature="0" id="path2007" d="m 1328.293,882.314 c 0,0 -13.857,-11.536 -30.143,-9 -13.042,2.031 -20.714,9.125 -24.163,18.738 0,0 -6.99,-26.604 24.113,-29.42 29.919,-2.708 30.193,19.682 30.193,19.682 z"/>
			<path style="fill:#3db220" inkscape:connector-curvature="0" id="path2009" d="m 1220.149,877.379 c 0,0 17,-17.731 34.668,-10.731 11.346,4.495 18.87,12.266 17.316,25.39 0,0 12.118,-23.32 -13.568,-36.013 -23.903,-11.81 -38.416,21.354 -38.416,21.354 z"/>
			<path style="fill:#278f12" inkscape:connector-curvature="0" id="path2011" d="m 1305.553,855.338 c 0,0 -28.792,2.721 -28.633,25.747 0,0 -10.647,-8.898 3.897,-24.104 7.332,-7.667 24.736,-1.643 24.736,-1.643 z"/>
		</g>
		<g id="g2027">
			<path style="fill:#339617" inkscape:connector-curvature="0" id="path2015" d="m 1276.856,886.867 c -0.109,-0.051 -0.22,-0.109 -0.329,-0.16 -0.521,-0.25 -1.03,-0.479 -1.54,-0.689 -0.21,-0.101 -0.42,-0.18 -0.631,-0.26 -0.029,-0.021 -0.05,-0.021 -0.069,-0.03 -0.069,-0.029 -0.14,-0.061 -0.21,-0.08 -0.25,-0.1 -0.5,-0.189 -0.75,-0.279 -0.43,-0.149 -0.859,-0.29 -1.29,-0.41 -0.149,-0.971 -0.37,-1.909 -0.649,-2.811 0.54,0.4 1.061,0.79 1.529,1.17 0.011,0.011 0.021,0.021 0.03,0.021 0.16,0.13 0.311,0.26 0.46,0.369 0.399,0.33 0.771,0.649 1.101,0.931 0.17,0.16 0.329,0.3 0.479,0.439 0.029,0.021 0.061,0.051 0.09,0.08 0.189,0.159 0.359,0.319 0.521,0.471 0.45,0.42 0.79,0.76 1,0.97 0.17,0.179 0.258,0.268 0.258,0.268 z"/>
			<path style="fill:#339617" inkscape:connector-curvature="0" id="path2017" d="m 1277.067,872.778 c -0.561,2.39 -1.28,4.46 -1.96,6.13 -0.04,0.101 -0.08,0.189 -0.11,0.279 -0.01,0.011 -0.01,0.021 -0.01,0.021 -0.54,1.301 -1.051,2.33 -1.431,3.051 -0.29,0.55 -0.51,0.92 -0.609,1.08 -0.03,0.061 -0.05,0.09 -0.05,0.09 0.01,-0.04 0.01,-0.069 0.02,-0.109 0.431,-2.641 0.681,-5.12 0.79,-7.439 0.062,-1.5 0.07,-2.931 0.011,-4.29 -0.029,-0.891 -0.091,-1.75 -0.181,-2.591 0.28,-1.25 0.75,-2.59 1.45,-4.021 v -15.76 c 1.729,3.8 2.64,7.529 2.989,11.05 0.462,4.648 -0.059,8.928 -0.909,12.509 z"/>
			<path style="fill:#339617" inkscape:connector-curvature="0" id="path2019" d="m 1311.118,929.006 c 0,0 -5.239,-47.743 -37.419,-43.171 0,0 27.214,-14.881 39.1,8.037 11.885,22.918 -1.681,35.134 -1.681,35.134 z"/>
			<path style="fill:#339617" inkscape:connector-curvature="0" id="path2021" d="m 1328.298,882.317 c 0,0 -13.859,-11.539 -30.15,-9 -8.869,1.381 -15.25,5.101 -19.51,10.37 -0.49,0.591 -0.939,1.21 -1.37,1.851 -0.239,0.341 -0.46,0.699 -0.67,1.061 -0.04,0.03 -0.061,0.069 -0.069,0.109 -0.57,0.931 -1.08,1.891 -1.54,2.891 -0.36,0.8 -0.7,1.62 -1,2.46 0,0 -0.341,-1.28 -0.53,-3.311 -0.1,-0.97 -0.159,-2.119 -0.13,-3.38 0,-0.529 0.03,-1.091 0.08,-1.66 0.029,-0.47 0.079,-0.96 0.149,-1.449 0.181,-1.4 0.49,-2.87 0.979,-4.341 0.101,-0.319 0.221,-0.64 0.34,-0.949 0.03,-0.101 0.069,-0.189 0.11,-0.28 0.529,-1.319 1.209,-2.64 2.079,-3.909 0.771,-1.101 1.671,-2.171 2.74,-3.171 3.72,-3.47 9.479,-6.17 18.29,-6.97 29.922,-2.711 30.202,19.678 30.202,19.678 z"/>
			<path style="fill:#339617" inkscape:connector-curvature="0" id="path2023" d="m 1274.997,879.188 c 0,0.3 0,0.61 -0.01,0.91 -0.04,1.62 -0.221,3.149 -0.479,4.54 -0.051,0.3 -0.11,0.59 -0.171,0.87 v 0.01 c -0.02,0.07 -0.039,0.141 -0.05,0.21 0,0.01 -0.011,0.03 -0.011,0.04 -0.25,1.12 -0.539,2.12 -0.819,2.979 -0.681,2.051 -1.319,3.29 -1.319,3.29 0.301,-2.561 0.26,-4.909 -0.101,-7.08 -0.149,-0.971 -0.37,-1.909 -0.649,-2.811 0.54,0.4 1.061,0.79 1.529,1.17 0.431,-2.64 0.681,-5.12 0.79,-7.438 -0.47,-1.512 -0.71,-3.341 -0.43,-5.461 0.159,0.391 0.31,0.779 0.439,1.171 0.63,1.829 0.989,3.63 1.159,5.38 0.061,0.59 0.091,1.17 0.11,1.75 v 0.01 c 0,0.15 0.012,0.309 0.012,0.46 z"/>
			<path style="fill:#339617" inkscape:connector-curvature="0" id="path2025" d="m 1305.558,855.338 c 0,0 -18.471,1.739 -25.75,14.27 -1.811,3.11 -2.92,6.891 -2.891,11.48 0,0 -0.89,-0.75 -1.811,-2.181 -0.039,-0.061 -0.079,-0.12 -0.119,-0.181 v -0.01 c -0.15,-0.24 -0.301,-0.511 -0.45,-0.801 -0.311,-0.601 -0.601,-1.279 -0.83,-2.039 -0.47,-1.511 -0.71,-3.341 -0.43,-5.461 0.06,-0.46 0.14,-0.931 0.26,-1.42 0.28,-1.25 0.75,-2.591 1.45,-4.021 0.729,-1.479 1.699,-3.05 2.989,-4.71 0.811,-1.061 1.761,-2.16 2.841,-3.29 7.33,-7.657 24.741,-1.636 24.741,-1.636 z"/>
		</g>
		<path style="fill:#278f12" inkscape:connector-curvature="0" id="path2029" d="m 1274.987,864.978 v 24.62 c -0.36,0.8 -0.7,1.62 -1,2.46 0,0 -0.34,-1.279 -0.53,-3.311 -0.681,2.051 -1.319,3.29 -1.319,3.29 0.301,-2.561 0.26,-4.909 -0.101,-7.08 -0.149,-0.97 -0.37,-1.909 -0.649,-2.811 0.54,0.4 1.061,0.79 1.529,1.17 0.431,-2.64 0.681,-5.119 0.79,-7.438 -0.47,-1.511 -0.71,-3.341 -0.43,-5.461 0.06,-0.46 0.14,-0.93 0.26,-1.42 0.28,-1.25 0.75,-2.59 1.45,-4.019 z"/>
	</g><g id="g2049" inkscape:export-xdpi="99.999908" inkscape:export-ydpi="99.999908">
		<path style="fill:#edd5b4" inkscape:connector-curvature="0" id="path2033" d="m 1365.701,951.15 h -16.715 c -3.235,-7.045 4.616,-31.862 8,-41.808 0.874,-2.588 1.448,-4.165 1.448,-4.165 -0.958,39.772 7.267,45.973 7.267,45.973 z"/>
		<path style="fill:#278f12" inkscape:connector-curvature="0" id="path2035" d="m 1329.345,929.258 c 0,0 12.275,-26.687 30.063,-17.81 0,0 -12.91,-13.897 -24.239,-2.9 -11.332,10.998 -5.824,20.71 -5.824,20.71 z"/>
		<path style="fill:#278f12" inkscape:connector-curvature="0" id="path2037" d="m 1336.347,884.256 c 0,0 25.075,-2.13 20.641,25.087 0,0 6.302,-10.012 1.25,-20.99 -5.052,-10.98 -21.891,-4.097 -21.891,-4.097 z"/>
		<path style="fill:#278f12" inkscape:connector-curvature="0" id="path2039" d="m 1380.361,937.218 c 0,0 -3.204,-29.199 -22.886,-26.403 0,0 16.645,-9.101 23.913,4.916 7.27,14.015 -1.027,21.487 -1.027,21.487 z"/>
		<path style="fill:#e2c8aa" inkscape:connector-curvature="0" id="path2041" d="m 1365.701,951.15 h -10.152 c -2.716,-7.491 -0.238,-29.563 1.438,-41.808 0.874,-2.588 1.448,-4.165 1.448,-4.165 -0.959,39.772 7.266,45.973 7.266,45.973 z"/>
		<path style="fill:#278f12" inkscape:connector-curvature="0" id="path2043" d="m 1390.865,908.662 c 0,0 -8.476,-7.057 -18.436,-5.505 -7.977,1.241 -12.669,5.58 -14.777,11.46 0,0 -4.274,-16.271 14.748,-17.992 18.297,-1.657 18.465,12.037 18.465,12.037 z"/>
		<path style="fill:#278f12" inkscape:connector-curvature="0" id="path2045" d="m 1324.727,905.644 c 0,0 10.397,-10.845 21.202,-6.563 6.938,2.749 11.541,7.501 10.591,15.526 0,0 7.411,-14.263 -8.299,-22.023 -14.619,-7.224 -23.494,13.06 -23.494,13.06 z"/>
		<path style="fill:#278f12" inkscape:connector-curvature="0" id="path2047" d="m 1376.958,892.163 c 0,0 -17.609,1.664 -17.512,15.747 0,0 -6.514,-5.442 2.384,-14.742 4.483,-4.689 15.128,-1.005 15.128,-1.005 z"/>
	</g><g id="g2061" inkscape:export-xdpi="99.999908" inkscape:export-ydpi="99.999908">
		<circle style="fill:#fcfcfa" id="circle2051" r="58.766998" cy="463.93799" cx="395.42999"/>
		<circle style="fill:#fcfcfa" id="circle2053" r="58.766998" cy="424.93399" cx="472.73599"/>
		<circle style="fill:#fcfcfa" id="circle2055" r="47.384998" cy="463.93799" cx="472.73599"/>
		<circle style="fill:#fcfcfa" id="circle2057" r="47.384998" cy="483.70099" cx="545.22803"/>
		<circle style="fill:#fcfcfa" id="circle2059" r="36.179001" cy="500.117" cx="592.61401"/>
	</g><g transform="translate(33.519553,-4.0223464)" id="g2073" inkscape:export-xdpi="99.999908" inkscape:export-ydpi="99.999908">
		<circle style="fill:#fcfcfa" id="circle2063" r="36.583" cy="611.08398" cx="1377.752"/>
		<circle style="fill:#fcfcfa" id="circle2065" r="36.583" cy="586.80298" cx="1425.876"/>
		<circle style="fill:#fcfcfa" id="circle2067" r="29.497999" cy="611.08398" cx="1425.876"/>
		<circle style="fill:#fcfcfa" id="circle2069" r="29.499001" cy="623.38702" cx="1471.0031"/>
		<circle style="fill:#fcfcfa" id="circle2071" r="22.521999" cy="633.60602" cx="1500.502"/>
	</g><g transform="translate(46.927374,-25.47486)" id="g2085" inkscape:export-xdpi="99.999908" inkscape:export-ydpi="99.999908">
		<circle style="fill:#fcfcfa" id="circle2075" r="38.453999" cy="419.73901" cx="1226.103"/>
		<circle style="fill:#fcfcfa" id="circle2077" r="38.453999" cy="394.21701" cx="1276.688"/>
		<circle style="fill:#fcfcfa" id="circle2079" r="31.006001" cy="419.73901" cx="1276.688"/>
		<circle style="fill:#fcfcfa" id="circle2081" r="31.006001" cy="432.67099" cx="1324.1219"/>
		<circle style="fill:#fcfcfa" id="circle2083" r="23.674" cy="398.492" cx="1317.265"/>
	</g><g id="g2097" inkscape:export-xdpi="99.999908" inkscape:export-ydpi="99.999908">
		<circle style="fill:#fcfcfa" id="circle2087" r="38.453999" cy="407.293" cx="1690.924"/>
		<circle style="fill:#fcfcfa" id="circle2089" r="38.453999" cy="381.771" cx="1741.5081"/>
		<circle style="fill:#fcfcfa" id="circle2091" r="31.006001" cy="407.293" cx="1741.5081"/>
		<circle style="fill:#fcfcfa" id="circle2093" r="31.007" cy="420.22501" cx="1788.942"/>
		<circle style="fill:#fcfcfa" id="circle2095" r="23.674" cy="386.04599" cx="1782.0861"/>
	</g><path style="fill:#92f811" inkscape:connector-curvature="0" id="path2099" d="m 1920,920.221 c -2.829,-2.115 -6.093,-3.341 -9.578,-3.341 h -520.683 c -10.716,0 -19.401,11.414 -19.401,25.497 0,14.08 8.687,25.496 19.401,25.496 h 520.683 c 3.487,0 6.751,-1.227 9.578,-3.343 z" inkscape:export-xdpi="99.999908" inkscape:export-ydpi="99.999908"/><g id="g2119" inkscape:export-xdpi="99.999908" inkscape:export-ydpi="99.999908" transform="translate(-134)">
		<g id="g2105">
			<path style="fill:#88beca" inkscape:connector-curvature="0" id="path2101" d="m 608.696,599.453 c 0,0 7.608,-15.106 22.28,-9.129 14.671,5.979 15.215,7.498 15.215,7.498 0,0 -31.677,-14.218 -38.333,7.247 z"/>
			<path style="fill:#88beca" inkscape:connector-curvature="0" id="path2103" d="m 609.512,599.453 c 0,0 -7.608,-15.106 -22.28,-9.129 -14.672,5.979 -15.216,7.498 -15.216,7.498 0,0 29.753,-14.673 36.408,6.792 z"/>
		</g>
		<g id="g2111">
			<path style="fill:#88beca" inkscape:connector-curvature="0" id="path2107" d="m 676.971,567.572 c 0,0 2.407,-16.741 18.221,-15.739 15.811,1.003 16.81,2.271 16.81,2.271 0,0 -34.555,-3.406 -34.039,19.063 z"/>
			<path style="fill:#88beca" inkscape:connector-curvature="0" id="path2109" d="m 677.744,567.313 c 0,0 -12.018,-11.902 -24.027,-1.568 -12.009,10.334 -12.041,11.946 -12.041,11.946 0,0 23.543,-23.373 36.679,-5.139 z"/>
		</g>
		<g id="g2117">
			<path style="fill:#88beca" inkscape:connector-curvature="0" id="path2113" d="m 568.82,570.542 c 0,0 7.607,-15.106 22.28,-9.13 14.671,5.979 15.215,7.5 15.215,7.5 0,0 -31.679,-14.22 -38.333,7.246 z"/>
			<path style="fill:#88beca" inkscape:connector-curvature="0" id="path2115" d="m 569.635,570.542 c 0,0 -7.607,-15.106 -22.279,-9.13 -14.672,5.979 -15.215,7.5 -15.215,7.5 0,0 29.752,-14.675 36.407,6.791 z"/>
		</g>
	</g><path style="fill:#9ae020" inkscape:connector-curvature="0" id="path2121" d="m 1920,952.317 v 24.243 h -177.526 c -1.791,0 -3.497,-0.338 -5.055,-0.937 -1.554,0.599 -3.255,0.937 -5.049,0.937 h -351.984 c -7.236,0 -13.109,-5.433 -13.109,-12.122 0,-6.688 5.873,-12.121 13.109,-12.121 h 351.984 c 1.794,0 3.494,0.338 5.049,0.938 1.556,-0.601 3.264,-0.938 5.055,-0.938 z" inkscape:export-xdpi="99.999908" inkscape:export-ydpi="99.999908"/><path style="fill:#60bee8" inkscape:connector-curvature="0" id="path2133" d="m 1573.492,978.161 h -201.427 c -2.909,-7.834 -15.332,-13.723 -30.216,-13.723 H 513.593 c -17.046,0 -30.865,7.721 -30.865,17.243 0,9.523 13.818,17.242 30.865,17.242 h 338.555 c 1.098,3.521 3.813,6.644 7.603,9.021 H 596.16 c -11.345,0 -20.541,7.72 -20.541,17.243 0,9.522 9.196,17.242 20.541,17.242 h 114.418 c -1.866,3.03 -2.94,6.552 -2.94,10.313 0,8.266 5.166,15.384 12.604,18.627 H 830.86 c 4.388,0 8.319,2.896 10.99,7.473 h 291.274 c -2.017,-2.646 -4.574,-4.619 -7.455,-5.597 h 184.465 c 11.952,0 21.646,-9.18 21.646,-20.502 0,-11.324 -9.692,-20.503 -21.646,-20.503 H 1166.16 c 1.154,-2.154 1.812,-4.537 1.812,-7.054 0,-4.948 -2.497,-9.396 -6.475,-12.542 h 411.994 c 14.32,0 25.932,-7.72 25.932,-17.241 10e-4,-9.523 -11.61,-17.242 -25.931,-17.242 z" inkscape:export-xdpi="99.999908" inkscape:export-ydpi="99.999908"/><g id="g2143" inkscape:export-xdpi="99.999908" inkscape:export-ydpi="99.999908">
		<path style="fill:#89fcf7" inkscape:connector-curvature="0" id="path2135" d="m 1141.563,1020.29 c 0,3.453 -2.799,6.253 -6.253,6.253 H 980.104 c -3.453,0 -6.254,-2.8 -6.254,-6.253 v 0 c 0,-3.453 2.801,-6.253 6.254,-6.253 h 155.206 c 3.455,0 6.253,2.8 6.253,6.253 z"/>
		<g id="g2141">
			<path style="fill:#89fcf7" inkscape:connector-curvature="0" id="path2137" d="M 1102.049,1010.539 H 946.842 c -3.453,0 -6.253,2.801 -6.253,6.253 0,1.629 0.628,3.107 1.648,4.22 h -66.965 c -4.887,0 -8.848,3.961 -8.848,8.847 0,1.774 0.527,3.423 1.427,4.808 h -39.64 c -4.886,0 -8.847,3.961 -8.847,8.848 0,4.886 3.961,8.847 8.847,8.847 h 36.563 c -3.431,0 -6.213,3.203 -6.213,7.154 0,3.951 2.781,7.152 6.213,7.152 h 40.044 c -1.849,1.239 -3.095,3.54 -3.095,6.181 0,3.951 2.782,7.152 6.215,7.152 h 154.258 c 3.432,0 6.215,-3.201 6.215,-7.152 0,-3.951 -2.783,-7.154 -6.214,-7.154 h -40.043 c 1.848,-1.239 3.094,-3.538 3.094,-6.179 0,-3.951 -2.782,-7.154 -6.214,-7.154 h 28.769 c 4.886,0 8.847,-3.961 8.847,-8.847 0,-1.774 -0.528,-3.424 -1.428,-4.809 h 39.642 c 4.886,0 8.847,-3.961 8.847,-8.847 0,-2.741 -1.247,-5.19 -3.205,-6.813 h 1.544 c 3.454,0 6.253,-2.8 6.253,-6.253 0,-3.455 -2.8,-6.254 -6.254,-6.254 z"/>
			<path style="fill:#89fcf7" inkscape:connector-curvature="0" id="path2139" d="m 890.833,1015.037 h 155.207 c 3.454,0 6.253,-2.8 6.253,-6.253 0,-1.254 -0.373,-2.42 -1.009,-3.398 h 51.567 c 3.454,0 6.253,-2.8 6.253,-6.253 0,-3.453 -2.799,-6.253 -6.253,-6.253 H 947.646 c -3.453,0 -6.254,2.8 -6.254,6.253 0,1.254 0.373,2.42 1.009,3.398 h -51.567 c -3.453,0 -6.253,2.8 -6.253,6.253 0,3.453 2.799,6.253 6.252,6.253 z"/>
		</g>
	</g>




</svg>