<?xml version="1.0" encoding="UTF-8"?>
<svg width="22px" height="22px" viewBox="0 0 22 22" version="1.1" xmlns="http://www.w3.org/2000/svg" xmlns:xlink="http://www.w3.org/1999/xlink">
    <!-- Generator: Sketch 43.2 (39069) - http://www.bohemiancoding.com/sketch -->
    <title>Instagram Icon</title>
    <desc>Created with Sketch.</desc>
    <defs></defs>
    <g id="Page-1" stroke="none" stroke-width="1" fill="none" fill-rule="evenodd">
        <g id="Yebo-Menu" transform="translate(-1107.000000, -268.000000)" fill="#3E414D">
            <g id="Group-2" transform="translate(1049.000000, 181.000000)">
                <g id="Group-4">
                    <g id="Socials" transform="translate(0.000000, 87.000000)">
                        <path d="M68.972973,14.8648973 C67.0027027,14.8648973 65.4050811,13.2672757 65.4050811,11.2970054 C65.4050811,9.32673514 67.0027027,7.73008649 68.972973,7.73008649 C70.9432432,7.73008649 72.5408649,9.32673514 72.5408649,11.2970054 C72.5408649,13.2672757 70.9432432,14.8648973 68.972973,14.8648973 M68.972973,5.80165405 C65.9372973,5.80165405 63.4766486,8.2623027 63.4766486,11.2970054 C63.4766486,14.3326811 65.9372973,16.7933297 68.972973,16.7933297 C72.0086486,16.7933297 74.4692973,14.3326811 74.4692973,11.2970054 C74.4692973,8.2623027 72.0086486,5.80165405 68.972973,5.80165405 M77.684973,15.6218703 C77.6372973,16.6658703 77.4631351,17.2321405 77.3162162,17.6096541 C77.1225946,18.1087892 76.8900541,18.4658703 76.5154595,18.8404649 C76.1408649,19.2150595 75.7847568,19.446627 75.2846486,19.6402486 C74.9081081,19.7871676 74.3408649,19.9613297 73.2978378,20.0090054 C72.1691892,20.060573 71.8305946,20.0712757 68.972973,20.0712757 C66.1153514,20.0712757 65.7767568,20.060573 64.6481081,20.0090054 C63.6050811,19.9613297 63.0378378,19.7871676 62.6612973,19.6402486 C62.1611892,19.446627 61.8050811,19.2150595 61.4304865,18.8404649 C61.0558919,18.4658703 60.8233514,18.1087892 60.6297297,17.6096541 C60.4828108,17.2321405 60.3086486,16.6658703 60.260973,15.6218703 C60.2094054,14.4932216 60.1987027,14.154627 60.1987027,11.2970054 C60.1987027,8.43938378 60.2094054,8.10078919 60.260973,6.97214054 C60.3086486,5.92911351 60.4828108,5.36187027 60.6297297,4.98532973 C60.8233514,4.48522162 61.0558919,4.12911351 61.4304865,3.75451892 C61.8050811,3.37992432 62.1611892,3.14835676 62.6612973,2.95376216 C63.0378378,2.80781622 63.6050811,2.63268108 64.6481081,2.58500541 C65.7767568,2.53441081 66.1153514,2.52273514 68.972973,2.52273514 C71.8305946,2.52273514 72.1691892,2.53441081 73.2978378,2.58500541 C74.3408649,2.63268108 74.9081081,2.80781622 75.2846486,2.95376216 C75.7847568,3.14835676 76.1408649,3.37992432 76.5154595,3.75451892 C76.8900541,4.12911351 77.1225946,4.48522162 77.3162162,4.98532973 C77.4631351,5.36187027 77.6372973,5.92911351 77.684973,6.97214054 C77.7365405,8.10078919 77.7472432,8.43938378 77.7472432,11.2970054 C77.7472432,14.154627 77.7365405,14.4932216 77.684973,15.6218703 M79.6114595,6.88457297 C79.5589189,5.74522162 79.3779459,4.96781622 79.1132973,4.28673514 C78.8398919,3.58327568 78.4740541,2.98587027 77.8795676,2.39138378 C77.2841081,1.79592432 76.6876757,1.43008649 75.9832432,1.15668108 C75.3031351,0.892032432 74.5247568,0.711059459 73.3854054,0.659491892 C72.2441081,0.606951351 71.8792432,0.594302703 68.972973,0.594302703 C66.0667027,0.594302703 65.7018378,0.606951351 64.5605405,0.659491892 C63.4211892,0.711059459 62.6428108,0.892032432 61.9627027,1.15668108 C61.2582703,1.43008649 60.6618378,1.79592432 60.0663784,2.39138378 C59.4718919,2.98587027 59.1060541,3.58327568 58.8316757,4.28673514 C58.568,4.96781622 58.387027,5.74522162 58.3344865,6.88457297 C58.2829189,8.02587027 58.2702703,8.39073514 58.2702703,11.2970054 C58.2702703,14.2042486 58.2829189,14.5681405 58.3344865,15.7104108 C58.387027,16.8487892 58.568,17.6271676 58.8316757,18.3082486 C59.1060541,19.0117081 59.4718919,19.6091135 60.0663784,20.2036 C60.6618378,20.7990595 61.2582703,21.1648973 61.9627027,21.4383027 C62.6428108,21.7029514 63.4211892,21.8839243 64.5605405,21.9354919 C65.7018378,21.9880324 66.0667027,21.9997081 68.972973,21.9997081 C71.8792432,21.9997081 72.2441081,21.9880324 73.3854054,21.9354919 C74.5247568,21.8839243 75.3031351,21.7029514 75.9832432,21.4383027 C76.6876757,21.1648973 77.2841081,20.7990595 77.8795676,20.2036 C78.4740541,19.6091135 78.8398919,19.0117081 79.1132973,18.3082486 C79.3779459,17.6271676 79.5589189,16.8487892 79.6114595,15.7104108 C79.663027,14.5681405 79.6756757,14.2042486 79.6756757,11.2970054 C79.6756757,8.39073514 79.663027,8.02587027 79.6114595,6.88457297 M74.6862703,4.29938378 C73.976973,4.29938378 73.4019459,4.87441081 73.4019459,5.58370811 C73.4019459,6.29300541 73.976973,6.86803243 74.6862703,6.86803243 C75.3955676,6.86803243 75.9705946,6.29300541 75.9705946,5.58370811 C75.9705946,4.87441081 75.3955676,4.29938378 74.6862703,4.29938378" id="Instagram-Icon"></path>
                    </g>
                </g>
            </g>
        </g>
    </g>
</svg>