<?xml version="1.0" encoding="UTF-8"?>
<svg width="21px" height="17px" viewBox="0 0 21 17" version="1.1" xmlns="http://www.w3.org/2000/svg" xmlns:xlink="http://www.w3.org/1999/xlink">
    <!-- Generator: Sketch 43.2 (39069) - http://www.bohemiancoding.com/sketch -->
    <title>Twitter Icon</title>
    <desc>Created with Sketch.</desc>
    <defs></defs>
    <g id="Page-1" stroke="none" stroke-width="1" fill="none" fill-rule="evenodd">
        <g id="Yebo-Menu" transform="translate(-1049.000000, -272.000000)" fill="#3E414D">
            <g id="Group-2" transform="translate(1049.000000, 181.000000)">
                <g id="Group-4">
                    <g id="Socials" transform="translate(0.000000, 87.000000)">
                        <path d="M20.2138378,6.13383784 C19.4705946,6.468 18.6702703,6.69394595 17.8318919,6.79621622 C18.6881081,6.27535135 19.3457297,5.45243243 19.6549189,4.47135135 C18.8534054,4.95297297 17.9662703,5.30259459 17.0208649,5.4892973 C16.2657297,4.67351351 15.1883243,4.16216216 13.9943784,4.16216216 C11.704,4.16216216 9.84767568,6.04464865 9.84767568,8.36594595 C9.84767568,8.69654054 9.88454054,9.01643243 9.9547027,9.32443243 C6.50843243,9.14962162 3.45340541,7.47643243 1.408,4.93394595 C1.05124324,5.55232432 0.846702703,6.27535135 0.846702703,7.04594595 C0.846702703,8.50389189 1.57924324,9.79059459 2.69113514,10.5433514 C2.01091892,10.5207568 1.37232432,10.3316757 0.813405405,10.0177297 L0.813405405,10.0700541 C0.813405405,12.1071351 2.24162162,13.8041081 4.13956757,14.1917838 C3.79113514,14.2881081 3.42605405,14.3392432 3.0467027,14.3392432 C2.78032432,14.3392432 2.51989189,14.3130811 2.26778378,14.2631351 C2.79459459,15.9327568 4.32627027,17.1481081 6.14097297,17.1814054 C4.72108108,18.3087568 2.93372973,18.9818378 0.990594595,18.9818378 C0.655243243,18.9818378 0.324648649,18.9616216 0,18.9235676 C1.83491892,20.1151351 4.0147027,20.8108108 6.35740541,20.8108108 C13.9860541,20.8108108 18.1565405,14.4058378 18.1565405,8.85232432 C18.1565405,8.67037838 18.1517838,8.48962162 18.1446486,8.31005405 C18.9556757,7.71664865 19.6584865,6.97816216 20.2138378,6.13502703 L20.2138378,6.13383784 Z" id="Twitter-Icon"></path>
                    </g>
                </g>
            </g>
        </g>
    </g>
</svg>