<?xml version="1.0" encoding="UTF-8"?>
<svg width="64px" height="64px" viewBox="0 0 64 64" version="1.1" xmlns="http://www.w3.org/2000/svg" xmlns:xlink="http://www.w3.org/1999/xlink">
    <!-- Generator: Sketch 51.3 (57544) - http://www.bohemiancoding.com/sketch -->
    <title>Group 20</title>
    <desc>Created with Sketch.</desc>
    <defs>
        <path d="M36.5454621,44.84 C36.5454621,44.84 32.9310691,43.7747751 32.104047,43.18215 C32.104047,43.18215 29.3136131,42.4711666 27.6603346,43.7747751 C27.6603346,43.7747751 23.8361231,45.198409 23.32,40.4557411 C23.3207658,40.4549076 28.900102,23.500495 37.4766278,34.526156 C37.4766278,34.526156 42.6432187,44.4857585 36.5454621,44.84 Z M28.0576331,29.713628 C29.8322541,29.5774621 31.0830205,27.2940654 30.8526611,24.6134512 C30.6223017,21.9328369 28.9969878,19.8702062 27.2223669,20.006372 C25.4477459,20.1425379 24.1969795,22.4259346 24.4273389,25.1065488 C24.6576983,27.7871631 26.2830122,29.8497938 28.0576331,29.713628 L28.0576331,29.713628 Z M24.1842499,30.016195 C24.7679131,32.3622898 24.1261101,34.6139923 22.7564271,35.0472292 C21.3837238,35.4812728 19.798093,33.9290423 19.21594,31.5813339 C18.6322768,29.2376594 19.2725696,26.9851503 20.6452729,26.5519134 C22.0179762,26.1210968 23.6020969,27.6701002 24.185005,30.016195 L24.1842499,30.016195 Z M34.3937625,25.0289452 C33.6754056,27.6681032 34.419097,30.2110975 36.0593045,30.7132855 C37.6978774,31.2154734 39.6069579,29.4853496 40.326132,26.8461916 C41.0453062,24.2111432 40.299163,21.6681489 38.6605901,21.1667828 C37.0236516,20.6645949 35.1121194,22.3930749 34.3937625,25.0281233 L34.3937625,25.0289452 Z M40.2014321,32.6580422 C39.1031173,34.9168612 39.360456,37.369101 40.771614,38.1326929 C42.183613,38.8937618 44.2196164,37.6819382 45.3179313,35.4197554 C46.4162462,33.1592544 46.1605894,30.7103784 44.7494314,29.9484685 C43.3357504,29.1848767 41.300588,30.3975412 40.2022731,32.6588831 L40.2022731,32.6588831 L40.2014321,32.6580422 Z" id="path-1"></path>
        <filter x="-13.0%" y="-10.1%" width="125.9%" height="128.2%" filterUnits="objectBoundingBox" id="filter-2">
            <feOffset dx="0" dy="1" in="SourceAlpha" result="shadowOffsetOuter1"></feOffset>
            <feGaussianBlur stdDeviation="1" in="shadowOffsetOuter1" result="shadowBlurOuter1"></feGaussianBlur>
            <feColorMatrix values="0 0 0 0 0   0 0 0 0 0   0 0 0 0 0  0 0 0 0.1 0" type="matrix" in="shadowBlurOuter1"></feColorMatrix>
        </filter>
    </defs>
    <g id="Page-1" stroke="none" stroke-width="1" fill="none" fill-rule="evenodd">
        <g id="Montserrat" transform="translate(-270.000000, -1480.000000)">
            <g id="Panda-Wall" transform="translate(-272.000000, 1480.000000)">
                <g id="Group-20" transform="translate(542.000000, 0.000000)">
                    <circle id="Oval-2" fill="#67C3A9" cx="32" cy="32" r="32"></circle>
                    <g id="Shape">
                        <use fill="black" fill-opacity="1" filter="url(#filter-2)" xlink:href="#path-1"></use>
                        <use fill="#FFFFFF" fill-rule="evenodd" xlink:href="#path-1"></use>
                    </g>
                </g>
            </g>
        </g>
    </g>
</svg>