<?xml version="1.0" encoding="UTF-8"?>
<svg width="64px" height="64px" viewBox="0 0 64 64" version="1.1" xmlns="http://www.w3.org/2000/svg" xmlns:xlink="http://www.w3.org/1999/xlink">
    <!-- Generator: Sketch 49.3 (51167) - http://www.bohemiancoding.com/sketch -->
    <title>Icon</title>
    <desc>Created with Sketch.</desc>
    <defs></defs>
    <g id="Landing-Page" stroke="none" stroke-width="1" fill="none" fill-rule="evenodd">
        <g id="Desktop" transform="translate(-608.000000, -5291.000000)">
            <g id="Features" transform="translate(0.000000, 4376.000000)">
                <g id="Group-8" transform="translate(140.000000, 915.000000)">
                    <g id="Feature" transform="translate(371.000000, 0.000000)">
                        <g id="Icon" transform="translate(96.500000, 0.000000)">
                            <g id="Group-2" transform="translate(0.500000, 0.000000)">
                                <circle id="Oval-2" fill="#C6B8E5" cx="32" cy="32" r="32"></circle>
                                <g id="Group-7" transform="translate(7.000000, 8.000000)">
                                    <rect id="Rectangle-10" fill="#8C72CB" transform="translate(25.000000, 25.000000) rotate(-315.000000) translate(-25.000000, -25.000000) " x="8" y="8" width="34" height="34" rx="11"></rect>
                                    <g id="infinite-mathematical-symbol" transform="translate(12.000000, 19.000000)" fill="#FFFFFF" fill-rule="nonzero">
                                        <path d="M19.5699834,0.106559603 C15.9709371,0.106559603 13.5891358,3.04919205 11.4878344,5.6459702 C9.69253311,7.86430132 7.9972053,9.95901656 5.93238079,9.95901656 C3.78615894,9.95901656 2.46843377,7.75318212 2.46843377,6.17184437 C2.46843377,4.70567881 3.91399669,2.57499338 6.17961258,2.57499338 C8.37801656,2.57499338 9.52332119,4.33449338 9.58107616,4.42467219 C9.93723179,5.00103974 10.6934503,5.1824106 11.2726887,4.82912583 C11.854798,4.47449007 12.0392086,3.71506291 11.684404,3.13295364 C11.6090861,3.0096755 9.79858609,0.106728477 6.17961258,0.106728477 C2.53800993,0.106728477 0,3.30351656 0,6.17201325 C0,9.13085762 2.43634768,12.4276192 5.93221192,12.4276192 C9.17442715,12.4276192 11.326053,9.76953974 13.4064139,7.19876821 C15.330904,4.82135762 17.1488344,2.57516225 19.5699834,2.57516225 C21.0104801,2.57516225 21.9570199,3.06388411 22.4629669,4.06800993 C22.9013642,4.93940066 22.9010265,5.92545695 22.9006887,6.2670894 C22.9006887,6.46298344 22.7971689,7.44549338 22.317904,8.33022517 C21.7714272,9.33806623 20.9956192,9.80719868 19.8744636,9.80719868 C17.6167848,9.80719868 16.3970066,8.33968212 15.9376689,7.78695695 C15.8182748,7.64307616 15.7323179,7.53955629 15.6174834,7.44127152 C15.1003907,6.99831457 14.3208675,7.05775828 13.8770662,7.57552649 C13.4491391,8.07488742 13.4903444,8.81725828 13.9577881,9.26663245 C13.9800795,9.29196358 14.0069305,9.32523179 14.0388477,9.36390397 C14.6375066,10.0843212 16.4578013,12.2752947 19.873957,12.2752947 C24.0258974,12.2752947 25.3686159,8.22687417 25.3686159,6.25020199 C25.3689536,4.99124503 25.1332053,3.88376821 24.6671126,2.95783113 C24.0127252,1.6575 22.5968841,0.106559603 19.5699834,0.106559603 Z" id="Shape"></path>
                                    </g>
                                </g>
                            </g>
                        </g>
                    </g>
                </g>
            </g>
        </g>
    </g>
</svg>